<svg id="svg" version="1.1" xmlns="http://www.w3.org/2000/svg" xmlns:xlink="http://www.w3.org/1999/xlink" width="400" height="400" viewBox="0, 0, 400,400"><g id="svgg"><path id="path0" d="M11.406 289.209 C 11.548 289.439,10.979 289.600,10.024 289.600 C 9.131 289.600,8.400 289.780,8.400 290.000 C 8.400 290.220,8.040 290.400,7.600 290.400 C 7.160 290.400,6.800 290.580,6.800 290.800 C 6.800 291.020,6.517 291.200,6.171 291.200 C 5.826 291.200,5.308 291.425,5.020 291.700 C 4.733 291.975,4.116 292.465,3.649 292.788 C 3.182 293.112,2.800 293.607,2.800 293.888 C 2.800 294.170,2.648 294.400,2.463 294.400 C -0.280 294.400,-1.068 322.569,1.602 325.200 C 1.713 325.310,2.308 326.075,2.923 326.900 C 3.538 327.725,4.219 328.400,4.437 328.400 C 4.655 328.400,5.220 328.760,5.692 329.200 C 6.164 329.640,6.787 330.000,7.075 330.000 C 7.364 330.000,7.600 330.180,7.600 330.400 C 7.600 330.620,8.151 330.800,8.824 330.800 C 9.650 330.800,9.954 330.951,9.761 331.264 C 9.548 331.607,10.189 331.660,12.237 331.467 C 13.757 331.323,16.305 331.204,17.900 331.203 L 20.800 331.200 20.800 323.360 C 20.800 312.623,21.878 310.600,27.600 310.600 C 33.350 310.600,34.400 312.556,34.400 323.261 L 34.400 331.200 41.700 331.237 C 79.799 331.427,155.600 331.336,155.600 331.100 C 155.600 330.935,156.140 330.800,156.800 330.800 C 157.460 330.800,158.000 330.620,158.000 330.400 C 158.000 330.180,158.254 330.000,158.565 330.000 C 159.460 330.000,163.856 325.437,164.596 323.740 C 164.965 322.893,165.432 321.887,165.634 321.505 C 166.146 320.534,166.114 299.200,165.600 299.200 C 165.380 299.200,165.196 298.795,165.191 298.300 C 165.186 297.805,164.830 296.950,164.400 296.400 C 163.970 295.850,163.614 295.229,163.609 295.019 C 163.595 294.423,160.026 291.200,159.380 291.200 C 159.061 291.200,158.800 291.020,158.800 290.800 C 158.800 290.580,158.451 290.400,158.024 290.400 C 157.597 290.400,157.136 290.220,157.000 290.000 C 156.864 289.780,156.123 289.600,155.353 289.600 C 154.543 289.600,154.055 289.435,154.194 289.209 C 154.351 288.956,143.084 288.814,122.218 288.805 C 100.758 288.796,90.000 288.926,90.000 289.196 C 90.000 289.453,87.387 289.600,82.800 289.600 C 78.213 289.600,75.600 289.453,75.600 289.196 C 75.600 288.926,64.842 288.796,43.382 288.805 C 22.516 288.814,11.249 288.956,11.406 289.209 M246.000 289.200 C 246.000 289.420,245.381 289.600,244.624 289.600 C 243.867 289.600,243.136 289.780,243.000 290.000 C 242.864 290.220,242.403 290.400,241.976 290.400 C 241.549 290.400,241.200 290.550,241.200 290.732 C 241.200 290.915,240.705 291.309,240.100 291.607 C 238.964 292.168,236.400 294.740,236.400 295.319 C 236.400 295.500,236.220 295.536,236.000 295.400 C 235.773 295.260,235.600 295.596,235.600 296.176 C 235.600 296.739,235.420 297.200,235.200 297.200 C 234.980 297.200,234.800 297.639,234.800 298.176 C 234.800 298.713,234.620 299.264,234.400 299.400 C 234.149 299.555,234.000 303.737,234.000 310.624 C 234.000 317.675,234.143 321.600,234.400 321.600 C 234.620 321.600,234.800 321.949,234.800 322.376 C 234.800 322.803,234.980 323.264,235.200 323.400 C 235.420 323.536,235.600 323.911,235.600 324.232 C 235.600 325.696,241.800 330.800,243.579 330.800 C 243.994 330.800,244.393 330.975,244.467 331.188 C 244.550 331.430,246.641 331.484,250.000 331.331 L 255.400 331.087 255.283 323.505 C 255.121 312.982,256.362 310.603,262.013 310.601 C 267.770 310.599,268.800 312.508,268.800 323.180 L 268.800 331.200 276.100 331.237 C 297.933 331.348,390.187 331.146,390.346 330.987 C 390.449 330.884,390.953 330.800,391.467 330.800 C 391.980 330.800,392.400 330.620,392.400 330.400 C 392.400 330.180,392.636 330.000,392.925 330.000 C 393.213 330.000,393.803 329.671,394.235 329.268 C 394.667 328.865,395.511 328.215,396.110 327.822 C 396.710 327.429,397.200 326.925,397.200 326.701 C 397.200 326.477,397.515 326.001,397.900 325.643 C 399.751 323.921,399.794 323.606,399.921 310.952 C 400.044 298.813,399.705 295.600,398.306 295.600 C 398.138 295.600,398.000 295.330,398.000 295.000 C 398.000 294.670,397.820 294.400,397.600 294.400 C 397.380 294.400,397.196 294.175,397.191 293.900 C 397.182 293.356,394.343 291.200,393.636 291.200 C 393.396 291.200,393.200 291.020,393.200 290.800 C 393.200 290.580,392.840 290.400,392.400 290.400 C 391.960 290.400,391.600 290.220,391.600 290.000 C 391.600 289.780,390.880 289.600,390.000 289.600 C 389.120 289.600,388.400 289.420,388.400 289.200 C 388.400 288.937,377.467 288.800,356.400 288.800 C 335.333 288.800,324.400 288.937,324.400 289.200 C 324.400 289.452,321.733 289.600,317.200 289.600 C 312.667 289.600,310.000 289.452,310.000 289.200 C 310.000 288.937,299.067 288.800,278.000 288.800 C 256.933 288.800,246.000 288.937,246.000 289.200 M57.600 311.600 C 57.600 311.820,57.883 312.000,58.229 312.000 C 60.501 312.000,61.200 314.583,61.200 322.980 L 61.200 330.400 55.000 330.400 L 48.800 330.400 48.800 323.528 C 48.800 315.754,49.306 313.781,51.728 312.122 C 53.077 311.197,57.600 310.795,57.600 311.600 M292.501 311.700 C 295.419 313.339,296.102 315.830,295.926 324.200 L 295.800 330.200 289.500 330.310 L 283.200 330.420 283.200 323.434 C 283.200 319.208,283.358 316.350,283.600 316.200 C 283.820 316.064,284.000 315.665,284.000 315.314 C 284.000 314.425,285.917 312.000,286.620 312.000 C 286.939 312.000,287.200 311.820,287.200 311.600 C 287.200 311.026,291.443 311.106,292.501 311.700 M8.072 359.100 C 7.542 359.375,6.941 359.600,6.737 359.600 C 6.532 359.600,5.890 360.040,5.310 360.579 C 4.729 361.117,4.107 361.466,3.927 361.355 C 3.747 361.244,3.600 361.444,3.600 361.800 C 3.600 362.156,3.420 362.336,3.200 362.200 C 2.980 362.064,2.800 362.156,2.800 362.404 C 2.800 362.653,2.215 363.698,1.500 364.728 L 0.200 366.600 0.200 379.000 C 0.200 391.295,0.470 394.000,1.698 394.000 C 1.864 394.000,2.000 394.225,2.000 394.500 C 2.001 395.163,3.771 397.200,4.347 397.200 C 4.596 397.200,4.800 397.380,4.800 397.600 C 4.800 397.820,5.070 398.000,5.400 398.000 C 5.730 398.000,6.001 398.135,6.003 398.300 C 6.013 399.278,8.519 399.751,14.500 399.907 L 20.800 400.070 20.801 392.135 C 20.803 381.873,22.060 379.501,27.521 379.452 C 33.134 379.402,34.400 381.739,34.400 392.154 L 34.400 400.000 41.600 400.000 L 48.800 400.000 48.800 392.400 C 48.800 387.600,48.947 384.800,49.200 384.800 C 49.420 384.800,49.600 384.474,49.600 384.076 C 49.600 383.221,51.852 380.800,52.647 380.800 C 52.951 380.800,53.200 380.620,53.200 380.400 C 53.200 379.667,56.558 379.975,58.233 380.863 C 60.893 382.271,61.200 383.466,61.200 392.409 L 61.200 400.013 109.300 399.906 C 159.043 399.796,159.581 399.779,159.597 398.300 C 159.599 398.135,159.851 398.000,160.159 398.000 C 160.659 398.000,161.513 397.145,163.700 394.453 C 164.085 393.979,164.400 393.312,164.400 392.972 C 164.400 392.631,164.580 392.464,164.800 392.600 C 165.026 392.740,165.200 392.412,165.200 391.847 C 165.200 391.297,165.380 390.736,165.600 390.600 C 166.106 390.288,166.147 369.075,165.644 368.095 C 165.448 367.713,164.884 366.553,164.390 365.518 C 163.896 364.482,163.112 363.226,162.646 362.725 C 162.181 362.225,161.849 361.664,161.910 361.478 C 161.970 361.292,161.858 361.241,161.660 361.363 C 161.462 361.485,160.819 361.138,160.230 360.593 C 159.641 360.047,158.898 359.600,158.579 359.600 C 158.261 359.600,158.000 359.399,158.000 359.153 C 158.000 358.904,157.647 358.799,157.200 358.916 C 156.760 359.031,156.400 359.007,156.400 358.863 C 156.400 358.325,9.111 358.561,8.072 359.100 M242.671 358.729 C 242.302 358.800,242.000 359.025,242.000 359.229 C 242.000 359.433,241.738 359.600,241.418 359.600 C 241.098 359.600,240.377 360.060,239.815 360.622 C 239.250 361.186,238.588 361.516,238.335 361.360 C 238.083 361.204,237.981 361.245,238.109 361.452 C 238.236 361.659,237.817 362.427,237.177 363.160 C 236.537 363.894,235.554 365.431,234.994 366.577 L 233.974 368.660 234.126 379.430 C 234.275 389.983,234.533 393.012,235.245 392.572 C 235.440 392.452,235.600 392.631,235.600 392.972 C 235.600 394.278,240.231 398.957,241.355 398.786 C 241.551 398.756,241.859 398.972,242.040 399.266 C 242.287 399.666,243.974 399.832,248.785 399.928 L 255.200 400.055 255.200 392.388 C 255.200 383.805,255.418 382.868,257.888 380.831 C 261.150 378.143,266.139 379.228,268.300 383.095 C 268.654 383.727,268.800 386.334,268.800 391.995 L 268.800 400.000 276.000 400.000 L 283.200 400.000 283.200 393.128 C 283.200 384.960,284.504 380.800,287.064 380.800 C 287.359 380.800,287.600 380.620,287.600 380.400 C 287.600 380.180,288.590 380.000,289.800 380.000 C 291.010 380.000,292.000 380.137,292.000 380.305 C 292.000 380.473,292.391 380.788,292.869 381.005 C 295.365 382.140,295.978 384.554,295.990 393.300 L 296.000 400.000 343.154 400.000 C 392.146 400.000,395.129 399.903,394.165 398.343 C 394.048 398.154,394.188 397.995,394.476 397.989 C 395.240 397.973,398.000 395.296,398.000 394.571 C 398.000 394.231,398.157 394.050,398.348 394.168 C 398.539 394.286,398.999 393.418,399.370 392.238 C 400.235 389.489,400.173 366.390,399.300 366.100 C 399.025 366.008,398.800 365.588,398.800 365.167 C 398.800 364.745,398.620 364.400,398.400 364.400 C 398.180 364.400,397.996 364.175,397.991 363.900 C 397.987 363.625,397.332 362.860,396.536 362.200 C 395.740 361.540,394.796 360.730,394.439 360.400 C 393.524 359.555,391.610 358.746,391.170 359.019 C 390.967 359.144,390.800 359.102,390.800 358.924 C 390.800 358.627,244.202 358.435,242.671 358.729 " stroke="none" fill="#547686" fill-rule="evenodd"></path><path id="path1" d="M197.400 76.400 C 196.960 76.589,196.088 76.756,195.462 76.772 C 193.613 76.818,188.632 79.426,186.334 81.552 C 176.025 91.087,178.252 108.248,190.623 114.600 C 191.908 115.260,193.400 116.205,193.938 116.700 C 194.848 117.537,195.281 117.600,200.113 117.600 C 204.975 117.600,205.364 117.542,206.184 116.700 C 206.666 116.205,208.216 115.193,209.630 114.452 C 225.165 106.305,223.077 82.280,206.400 77.289 C 202.132 76.011,199.020 75.704,197.400 76.400 M126.600 124.898 C 119.623 126.628,114.357 131.490,111.542 138.800 C 110.711 140.956,110.832 148.893,111.734 151.390 C 113.670 156.756,118.008 161.428,123.100 163.632 C 123.815 163.942,124.400 164.385,124.400 164.617 C 124.400 166.538,134.866 166.589,137.546 164.680 C 138.566 163.955,140.251 162.939,141.291 162.422 C 147.968 159.107,152.560 149.625,151.228 141.900 C 149.199 130.132,137.648 122.158,126.600 124.898 M264.600 124.896 C 245.841 129.529,242.905 154.535,260.106 163.174 C 261.154 163.701,262.211 164.372,262.455 164.666 C 262.698 164.960,263.146 165.200,263.449 165.200 C 263.752 165.200,264.000 165.380,264.000 165.600 C 264.000 166.767,275.580 165.790,275.611 164.620 C 275.617 164.389,276.731 163.660,278.086 163.000 C 299.127 152.755,287.284 119.294,264.600 124.896 M192.579 241.400 C 192.579 248.660,192.633 251.686,192.699 248.125 C 192.765 244.564,192.766 238.624,192.699 234.925 C 192.633 231.226,192.579 234.140,192.579 241.400 M207.379 241.400 C 207.379 248.660,207.433 251.686,207.499 248.125 C 207.565 244.564,207.566 238.624,207.499 234.925 C 207.433 231.226,207.379 234.140,207.379 241.400 M92.800 254.800 C 92.800 255.020,93.070 255.200,93.400 255.200 C 93.730 255.200,94.000 255.020,94.000 254.800 C 94.000 254.580,93.730 254.400,93.400 254.400 C 93.070 254.400,92.800 254.580,92.800 254.800 M85.213 257.491 C 84.689 258.082,84.703 258.123,85.346 257.876 C 85.742 257.724,86.141 257.600,86.233 257.600 C 86.325 257.600,86.400 257.420,86.400 257.200 C 86.400 256.612,85.881 256.739,85.213 257.491 M82.826 258.969 C 82.439 259.435,82.503 259.498,83.183 259.320 C 84.184 259.059,84.677 258.400,83.873 258.400 C 83.557 258.400,83.086 258.656,82.826 258.969 M315.800 258.800 C 315.936 259.020,316.307 259.200,316.624 259.200 C 316.941 259.200,317.200 259.410,317.200 259.667 C 317.200 259.923,317.316 260.018,317.457 259.876 C 317.820 259.513,316.817 258.400,316.127 258.400 C 315.811 258.400,315.664 258.580,315.800 258.800 M80.589 260.915 C 80.363 261.182,79.742 262.030,79.208 262.800 C 78.675 263.570,78.077 264.312,77.880 264.448 C 77.683 264.584,77.604 265.034,77.705 265.448 C 77.851 266.048,77.988 265.937,78.383 264.900 C 78.663 264.166,79.062 263.715,79.301 263.862 C 79.533 264.006,79.610 263.939,79.471 263.714 C 79.331 263.489,79.852 262.651,80.628 261.852 C 81.404 261.054,81.805 260.407,81.519 260.415 C 81.234 260.424,80.815 260.649,80.589 260.915 M317.804 260.807 C 317.942 261.030,318.194 261.127,318.364 261.022 C 318.668 260.835,319.460 261.779,321.413 264.657 C 322.235 265.868,322.400 265.969,322.400 265.256 C 322.400 264.785,322.259 264.400,322.086 264.400 C 321.914 264.400,321.480 263.905,321.121 263.300 C 320.065 261.515,318.953 260.400,318.229 260.400 C 317.857 260.400,317.666 260.583,317.804 260.807 M77.018 266.430 C 77.161 266.661,76.963 267.199,76.577 267.625 C 76.192 268.051,76.063 268.400,76.292 268.400 C 77.113 268.400,78.053 266.506,77.364 266.242 C 77.000 266.102,76.862 266.177,77.018 266.430 M322.846 267.129 C 322.821 267.859,323.070 268.727,323.400 269.057 C 324.095 269.752,324.328 268.506,323.639 267.780 C 323.440 267.571,323.191 267.040,323.085 266.600 C 322.963 266.093,322.876 266.286,322.846 267.129 M199.400 269.601 L 95.800 269.802 200.100 269.901 C 257.465 269.956,304.400 269.931,304.400 269.847 C 304.400 269.433,296.028 269.414,199.400 269.601 M305.600 269.847 C 305.600 270.318,308.918 273.215,309.158 272.954 C 309.291 272.809,309.175 272.610,308.900 272.512 C 308.625 272.414,308.400 272.093,308.400 271.800 C 308.400 271.507,307.873 271.034,307.229 270.749 C 306.585 270.464,306.145 270.088,306.252 269.915 C 306.360 269.742,306.257 269.600,306.024 269.600 C 305.791 269.600,305.600 269.711,305.600 269.847 M75.600 270.367 C 75.600 270.569,75.491 271.019,75.357 271.367 C 75.221 271.721,75.320 272.000,75.581 272.000 C 75.837 272.000,75.936 271.820,75.800 271.600 C 75.664 271.380,75.743 271.200,75.976 271.200 C 76.209 271.200,76.400 270.930,76.400 270.600 C 76.400 270.270,76.220 270.000,76.000 270.000 C 75.780 270.000,75.600 270.165,75.600 270.367 M324.018 270.834 C 324.264 271.293,324.544 271.589,324.642 271.492 C 324.922 271.212,324.354 270.000,323.943 270.000 C 323.739 270.000,323.773 270.375,324.018 270.834 M92.200 271.106 C 91.768 271.423,90.000 274.535,90.000 274.978 C 90.000 275.627,90.862 274.626,91.388 273.367 C 91.705 272.609,92.242 271.882,92.582 271.752 C 92.922 271.621,93.200 271.354,93.200 271.157 C 93.200 270.727,92.747 270.704,92.200 271.106 M324.493 273.200 C 324.493 273.970,324.575 274.285,324.676 273.900 C 324.776 273.515,324.776 272.885,324.676 272.500 C 324.575 272.115,324.493 272.430,324.493 273.200 M75.365 281.800 C 75.366 285.760,75.426 287.326,75.498 285.280 C 75.571 283.234,75.571 279.994,75.498 278.080 C 75.424 276.166,75.365 277.840,75.365 281.800 M324.565 281.800 C 324.566 285.760,324.626 287.326,324.698 285.280 C 324.771 283.234,324.771 279.994,324.698 278.080 C 324.624 276.166,324.565 277.840,324.565 281.800 M90.164 282.200 C 90.163 285.940,90.223 287.524,90.297 285.720 C 90.371 283.915,90.372 280.855,90.298 278.920 C 90.225 276.984,90.164 278.460,90.164 282.200 M309.764 282.200 C 309.763 285.940,309.823 287.524,309.897 285.720 C 309.971 283.915,309.972 280.855,309.898 278.920 C 309.825 276.984,309.764 278.460,309.764 282.200 M24.472 311.050 C 23.741 311.423,22.661 312.359,22.072 313.131 L 21.000 314.535 20.878 322.868 L 20.755 331.200 27.578 331.200 L 34.400 331.200 34.400 323.261 C 34.400 314.385,34.223 313.621,31.730 311.719 C 29.929 310.346,26.478 310.028,24.472 311.050 M259.709 310.719 C 256.047 311.874,255.124 314.599,255.279 323.800 L 255.400 331.000 262.100 331.110 L 268.800 331.219 268.800 323.190 C 268.800 314.241,268.665 313.653,266.172 311.751 C 264.683 310.615,261.598 310.123,259.709 310.719 M26.000 379.474 C 21.799 380.308,20.803 382.727,20.801 392.100 L 20.800 400.000 27.600 400.000 L 34.400 400.000 34.400 392.154 C 34.400 381.421,32.284 378.226,26.000 379.474 M260.295 379.547 C 256.168 380.491,255.200 382.925,255.200 392.360 L 255.200 400.000 262.000 400.000 L 268.800 400.000 268.800 391.995 C 268.800 386.334,268.654 383.727,268.300 383.095 C 266.636 380.117,263.630 378.785,260.295 379.547 " stroke="none" fill="#f88048" fill-rule="evenodd"></path><path id="path2" d="M161.660 327.442 C 160.931 328.266,161.400 328.657,162.181 327.876 C 162.521 327.536,162.800 327.154,162.800 327.029 C 162.800 326.609,162.206 326.824,161.660 327.442 M237.200 327.029 C 237.200 327.453,238.436 328.497,238.667 328.267 C 238.792 328.141,238.617 327.760,238.276 327.419 C 237.641 326.784,237.200 326.624,237.200 327.029 M395.429 328.229 C 395.005 328.538,394.736 328.869,394.830 328.963 C 394.924 329.057,395.348 328.881,395.771 328.571 C 396.195 328.262,396.464 327.931,396.370 327.837 C 396.276 327.743,395.852 327.919,395.429 328.229 M13.026 331.508 C 12.902 331.632,12.800 337.712,12.800 345.020 L 12.800 358.307 13.700 358.548 C 14.876 358.863,150.724 358.863,151.900 358.548 L 152.800 358.307 152.800 344.996 C 152.800 333.154,152.729 331.658,152.159 331.440 C 151.356 331.131,13.334 331.199,13.026 331.508 M247.700 331.486 C 247.314 331.626,247.200 334.694,247.200 344.987 L 247.200 358.307 248.100 358.548 C 249.280 358.864,385.125 358.863,386.305 358.547 L 387.211 358.304 387.105 344.852 L 387.000 331.400 317.600 331.353 C 279.430 331.327,247.975 331.387,247.700 331.486 M160.033 360.500 C 160.125 360.555,160.740 361.050,161.400 361.600 L 162.600 362.600 161.630 361.500 C 161.097 360.895,160.482 360.400,160.264 360.400 C 160.045 360.400,159.942 360.445,160.033 360.500 M237.868 361.846 C 237.025 362.629,236.411 363.344,236.502 363.435 C 236.593 363.527,237.425 362.881,238.351 362.001 C 239.276 361.120,239.891 360.405,239.717 360.411 C 239.543 360.417,238.711 361.062,237.868 361.846 M395.024 360.987 C 396.042 361.758,396.624 361.767,395.857 361.000 C 395.527 360.670,395.030 360.400,394.752 360.400 C 394.469 360.400,394.588 360.658,395.024 360.987 " stroke="none" fill="#354c5c" fill-rule="evenodd"></path><path id="path3" d="M220.920 96.400 C 220.920 97.610,220.995 98.105,221.087 97.500 C 221.178 96.895,221.178 95.905,221.087 95.300 C 220.995 94.695,220.920 95.190,220.920 96.400 M178.914 96.600 C 178.917 97.700,178.995 98.103,179.087 97.495 C 179.179 96.886,179.177 95.986,179.082 95.495 C 178.987 95.003,178.911 95.500,178.914 96.600 M385.931 142.203 C 385.789 142.425,385.550 143.325,385.400 144.203 C 383.965 152.608,379.525 164.756,375.971 170.000 C 375.599 170.550,374.910 171.686,374.440 172.524 C 373.971 173.362,373.407 174.262,373.187 174.524 C 372.966 174.786,371.856 176.260,370.719 177.800 C 368.310 181.061,361.206 188.375,358.482 190.397 C 357.447 191.166,356.510 191.901,356.400 192.031 C 354.031 194.829,339.554 202.127,332.600 204.027 C 331.940 204.207,330.680 204.559,329.800 204.808 C 327.657 205.414,325.179 205.928,321.800 206.468 C 319.868 206.776,301.667 206.961,263.100 207.063 L 207.200 207.211 207.200 217.805 L 207.200 228.400 261.800 228.400 C 297.933 228.400,316.400 228.265,316.400 228.000 C 316.400 227.763,317.867 227.600,320.000 227.600 C 322.133 227.600,323.600 227.437,323.600 227.200 C 323.600 226.980,324.500 226.800,325.600 226.800 C 326.700 226.800,327.600 226.620,327.600 226.400 C 327.600 226.180,328.320 226.000,329.200 226.000 C 330.080 226.000,330.800 225.845,330.800 225.656 C 330.800 225.466,331.719 225.203,332.842 225.070 C 333.966 224.937,335.091 224.672,335.342 224.481 C 335.594 224.291,336.970 223.725,338.400 223.223 C 339.830 222.722,341.171 222.151,341.380 221.956 C 341.589 221.760,342.084 221.600,342.480 221.600 C 342.876 221.600,343.200 221.420,343.200 221.200 C 343.200 220.980,343.434 220.800,343.720 220.800 C 344.456 220.800,346.393 219.859,346.397 219.500 C 346.399 219.335,346.760 219.200,347.200 219.200 C 347.640 219.200,348.000 219.020,348.000 218.800 C 348.000 218.580,348.278 218.400,348.617 218.400 C 348.956 218.400,349.620 218.040,350.092 217.600 C 350.564 217.160,351.198 216.800,351.499 216.800 C 351.801 216.800,351.936 216.620,351.800 216.400 C 351.664 216.180,351.878 215.994,352.276 215.987 C 353.160 215.972,354.487 215.020,354.127 214.660 C 353.901 214.434,354.266 214.339,355.030 214.426 C 355.157 214.441,355.562 214.117,355.930 213.707 C 356.299 213.297,357.230 212.523,358.000 211.985 C 358.770 211.448,360.346 210.107,361.502 209.004 C 366.455 204.281,369.440 201.264,370.000 200.413 C 370.330 199.912,370.825 199.267,371.100 198.980 C 371.375 198.692,371.600 198.254,371.600 198.005 C 371.600 197.756,371.767 197.656,371.971 197.782 C 372.175 197.908,372.470 197.604,372.626 197.106 C 372.782 196.608,373.336 195.690,373.857 195.066 C 374.379 194.443,374.724 193.800,374.624 193.639 C 374.524 193.478,374.793 193.093,375.221 192.785 C 375.650 192.476,376.000 191.903,376.000 191.512 C 376.000 191.120,376.180 190.800,376.400 190.800 C 376.620 190.800,376.800 190.545,376.800 190.233 C 376.800 189.922,376.935 189.607,377.100 189.533 C 377.532 189.341,379.200 186.028,379.200 185.362 C 379.200 185.053,379.380 184.800,379.600 184.800 C 379.820 184.800,380.000 184.440,380.000 184.000 C 380.000 183.560,380.180 183.200,380.400 183.200 C 380.620 183.200,380.800 182.739,380.800 182.176 C 380.800 181.505,380.959 181.251,381.262 181.438 C 381.516 181.595,381.618 181.554,381.490 181.346 C 381.280 181.006,381.841 179.405,382.836 177.505 C 383.036 177.123,383.200 176.258,383.200 175.582 C 383.200 174.864,383.366 174.456,383.600 174.600 C 383.838 174.747,384.000 174.271,384.000 173.424 C 384.000 172.641,384.180 172.000,384.400 172.000 C 384.620 172.000,384.800 171.381,384.800 170.624 C 384.800 169.867,384.980 169.136,385.200 169.000 C 385.420 168.864,385.600 167.874,385.600 166.800 C 385.600 165.726,385.753 164.753,385.939 164.638 C 386.125 164.523,386.316 163.122,386.363 161.527 C 386.409 159.931,386.617 158.420,386.824 158.171 C 387.040 157.910,387.133 155.086,387.041 151.558 C 386.880 145.382,386.413 141.450,385.931 142.203 M13.867 154.267 C 13.720 154.413,13.600 155.303,13.600 156.243 C 13.600 157.183,13.420 158.064,13.200 158.200 C 12.673 158.526,12.674 169.017,13.201 170.003 C 13.422 170.415,13.623 171.798,13.648 173.076 C 13.674 174.354,13.853 175.599,14.048 175.842 C 14.242 176.085,14.431 177.037,14.467 177.959 C 14.503 178.881,14.683 179.727,14.866 179.841 C 15.050 179.954,15.200 180.541,15.200 181.144 C 15.200 181.747,15.349 182.411,15.530 182.620 C 15.712 182.829,16.093 183.810,16.376 184.800 C 16.659 185.790,17.036 186.960,17.212 187.400 C 18.357 190.254,18.627 190.800,18.898 190.800 C 19.064 190.800,19.200 191.160,19.200 191.600 C 19.200 192.040,19.380 192.400,19.600 192.400 C 19.820 192.400,20.000 192.760,20.000 193.200 C 20.000 193.640,20.180 194.000,20.400 194.000 C 20.620 194.000,20.800 194.360,20.800 194.800 C 20.800 195.240,20.980 195.600,21.200 195.600 C 21.420 195.600,21.600 195.960,21.600 196.400 C 21.600 196.840,21.758 197.200,21.951 197.200 C 22.145 197.200,22.527 197.740,22.800 198.400 C 23.073 199.060,23.455 199.600,23.649 199.600 C 23.842 199.600,24.005 199.825,24.011 200.100 C 24.018 200.375,24.738 201.403,25.611 202.386 C 26.485 203.368,27.204 204.358,27.209 204.586 C 27.218 205.021,32.970 211.200,33.366 211.200 C 33.493 211.200,34.515 212.100,35.639 213.200 C 36.762 214.300,37.853 215.200,38.062 215.200 C 38.272 215.200,39.019 215.739,39.722 216.398 C 40.425 217.057,41.225 217.597,41.500 217.598 C 41.775 217.599,42.000 217.758,42.000 217.951 C 42.000 218.145,42.540 218.527,43.200 218.800 C 43.860 219.073,44.400 219.466,44.400 219.672 C 44.400 219.878,44.568 219.944,44.772 219.817 C 44.977 219.691,45.253 219.762,45.386 219.977 C 46.000 220.970,55.883 225.200,57.590 225.200 C 58.010 225.200,58.464 225.380,58.600 225.600 C 58.736 225.820,59.467 226.000,60.224 226.000 C 60.981 226.000,61.600 226.180,61.600 226.400 C 61.600 226.620,62.399 226.800,63.376 226.800 C 64.353 226.800,65.264 226.980,65.400 227.200 C 65.536 227.420,67.077 227.600,68.824 227.600 C 70.675 227.600,72.000 227.767,72.000 228.000 C 72.000 228.265,92.400 228.400,132.400 228.400 L 192.800 228.400 192.800 217.805 L 192.800 207.210 131.300 207.059 C 65.773 206.898,67.297 206.947,59.800 204.794 C 58.920 204.541,57.703 204.238,57.095 204.121 C 56.487 204.004,55.892 203.749,55.771 203.554 C 55.651 203.359,55.248 203.197,54.876 203.194 C 53.769 203.185,46.230 199.400,42.485 196.972 C 34.002 191.475,26.305 183.286,21.728 174.889 C 18.456 168.885,17.141 165.399,15.133 157.400 C 14.251 153.886,14.250 153.884,13.867 154.267 M138.167 172.200 C 138.167 176.380,138.226 178.036,138.298 175.879 C 138.371 173.723,138.370 170.303,138.298 168.279 C 138.225 166.256,138.166 168.020,138.167 172.200 M261.768 172.600 C 261.768 177.000,261.826 178.855,261.898 176.721 C 261.970 174.588,261.970 170.988,261.899 168.721 C 261.827 166.455,261.768 168.200,261.768 172.600 M269.578 194.300 L 268.200 195.800 269.700 194.422 C 271.096 193.138,271.384 192.800,271.078 192.800 C 271.012 192.800,270.337 193.475,269.578 194.300 M155.500 200.300 C 162.375 200.361,173.625 200.361,180.500 200.300 C 187.375 200.238,181.750 200.188,168.000 200.188 C 154.250 200.188,148.625 200.238,155.500 200.300 M219.500 200.300 C 226.375 200.361,237.625 200.361,244.500 200.300 C 251.375 200.238,245.750 200.188,232.000 200.188 C 218.250 200.188,212.625 200.238,219.500 200.300 M51.728 312.122 C 49.306 313.781,48.800 315.754,48.800 323.528 L 48.800 330.400 55.000 330.400 L 61.200 330.400 61.200 322.980 C 61.200 314.583,60.501 312.000,58.229 312.000 C 57.883 312.000,57.600 311.820,57.600 311.600 C 57.600 310.795,53.077 311.197,51.728 312.122 M287.200 311.600 C 287.200 311.820,286.939 312.000,286.620 312.000 C 285.917 312.000,284.000 314.425,284.000 315.314 C 284.000 315.665,283.820 316.064,283.600 316.200 C 283.358 316.350,283.200 319.208,283.200 323.434 L 283.200 330.420 289.500 330.310 L 295.800 330.200 295.926 324.200 C 296.102 315.830,295.419 313.339,292.501 311.700 C 291.443 311.106,287.200 311.026,287.200 311.600 M53.200 380.400 C 53.200 380.620,52.951 380.800,52.647 380.800 C 51.852 380.800,49.600 383.221,49.600 384.076 C 49.600 384.474,49.420 384.800,49.200 384.800 C 48.947 384.800,48.800 387.600,48.800 392.400 L 48.800 400.000 55.000 400.000 L 61.200 400.000 61.200 392.403 C 61.200 383.467,60.893 382.271,58.233 380.863 C 56.558 379.975,53.200 379.667,53.200 380.400 M287.600 380.400 C 287.600 380.620,287.359 380.800,287.064 380.800 C 284.504 380.800,283.200 384.960,283.200 393.128 L 283.200 400.000 289.600 400.000 L 296.000 400.000 295.990 393.300 C 295.978 384.554,295.365 382.140,292.869 381.005 C 292.391 380.788,292.000 380.473,292.000 380.305 C 292.000 380.137,291.010 380.000,289.800 380.000 C 288.590 380.000,287.600 380.180,287.600 380.400 " stroke="none" fill="#d4d4d4" fill-rule="evenodd"></path><path id="path4" d="M227.887 0.284 C 226.042 0.373,224.870 0.590,225.011 0.817 C 225.150 1.043,224.347 1.200,223.047 1.200 C 221.837 1.200,220.733 1.385,220.594 1.611 C 220.454 1.836,219.712 1.979,218.945 1.927 C 218.115 1.871,217.415 2.052,217.216 2.374 C 217.016 2.697,216.528 2.822,216.002 2.685 C 214.956 2.411,213.914 2.738,214.226 3.242 C 214.348 3.439,213.796 3.600,213.000 3.600 C 212.137 3.600,211.653 3.761,211.800 4.000 C 211.944 4.232,211.549 4.400,210.857 4.400 C 210.202 4.400,209.585 4.625,209.486 4.900 C 209.342 5.296,209.132 5.298,208.476 4.911 C 207.763 4.491,207.612 4.533,207.396 5.211 C 207.236 5.718,206.790 6.000,206.149 6.000 C 205.523 6.000,205.254 6.164,205.426 6.443 C 205.611 6.741,205.422 6.797,204.848 6.615 C 204.261 6.429,203.921 6.540,203.755 6.972 C 203.623 7.318,203.284 7.600,203.003 7.600 C 202.722 7.600,201.989 7.861,201.374 8.180 C 200.760 8.498,200.109 8.668,199.929 8.556 C 199.748 8.444,199.600 8.543,199.600 8.776 C 199.600 9.009,199.409 9.200,199.176 9.200 C 198.943 9.200,198.863 9.022,198.997 8.805 C 199.320 8.282,197.990 8.760,197.168 9.462 C 196.820 9.759,196.415 9.881,196.268 9.734 C 196.120 9.587,196.000 9.957,196.000 10.557 C 196.000 11.194,195.831 11.543,195.593 11.396 C 195.370 11.258,195.291 10.977,195.417 10.772 C 195.544 10.568,195.476 10.400,195.267 10.400 C 195.058 10.400,194.769 10.869,194.625 11.442 C 194.423 12.249,194.179 12.435,193.542 12.269 C 193.091 12.151,192.826 12.159,192.954 12.288 C 193.267 12.601,191.954 13.571,191.196 13.587 C 190.864 13.594,190.362 13.970,190.079 14.422 C 189.727 14.986,189.321 15.165,188.783 14.995 C 188.342 14.855,188.000 14.931,188.000 15.170 C 188.000 16.022,186.271 17.638,185.932 17.103 C 185.702 16.742,185.611 16.797,185.606 17.300 C 185.603 17.685,185.465 18.002,185.300 18.003 C 185.135 18.005,184.325 18.647,183.500 19.429 C 182.675 20.211,182.000 20.676,182.000 20.463 C 182.000 20.233,181.596 20.263,181.007 20.538 C 180.327 20.854,180.084 21.220,180.234 21.700 C 180.355 22.085,180.251 22.400,180.003 22.400 C 179.756 22.400,179.664 22.220,179.800 22.000 C 179.936 21.780,179.837 21.600,179.581 21.600 C 179.321 21.600,179.221 21.879,179.356 22.230 C 179.677 23.065,178.459 24.342,178.019 23.631 C 177.714 23.137,176.985 24.183,177.136 24.898 C 177.293 25.645,175.419 27.198,174.625 26.977 C 174.040 26.814,173.956 26.856,174.337 27.120 C 175.182 27.707,174.062 29.264,173.006 28.971 C 172.335 28.785,172.300 28.824,172.800 29.204 C 173.253 29.549,173.277 29.711,172.900 29.864 C 172.625 29.975,172.400 30.334,172.400 30.660 C 172.400 31.084,172.143 31.182,171.500 31.001 C 170.845 30.816,170.754 30.854,171.165 31.137 C 171.870 31.624,170.961 32.729,169.975 32.585 C 169.584 32.527,169.337 32.857,169.283 33.507 C 169.177 34.792,168.511 35.600,167.559 35.600 C 166.964 35.600,166.844 35.847,166.959 36.831 C 167.046 37.581,166.901 38.140,166.587 38.260 C 166.304 38.369,165.963 38.895,165.828 39.429 C 165.607 40.311,165.381 40.400,163.369 40.400 C 161.993 40.400,161.247 40.248,161.400 40.000 C 161.552 39.754,160.897 39.600,159.704 39.600 C 158.635 39.600,157.589 39.454,157.380 39.276 C 156.707 38.702,154.737 37.975,154.998 38.397 C 155.154 38.649,154.415 38.800,153.024 38.800 C 151.801 38.800,150.800 38.622,150.800 38.405 C 150.800 38.165,149.154 38.037,146.623 38.080 C 144.325 38.119,142.536 38.297,142.646 38.475 C 142.757 38.654,141.407 38.800,139.647 38.800 C 137.887 38.800,136.336 38.980,136.200 39.200 C 135.818 39.818,132.684 39.719,133.041 39.100 C 133.199 38.825,132.883 39.005,132.339 39.500 C 131.747 40.038,130.836 40.400,130.074 40.400 C 129.373 40.400,128.800 40.580,128.800 40.800 C 128.800 41.020,128.440 41.200,128.000 41.200 C 127.560 41.200,127.200 40.992,127.200 40.739 C 127.200 40.485,126.844 40.688,126.408 41.190 C 125.782 41.913,125.344 42.056,124.308 41.879 C 123.589 41.755,123.226 41.747,123.502 41.861 C 123.779 41.975,123.903 42.233,123.779 42.434 C 123.492 42.898,122.000 42.916,122.000 42.455 C 122.000 41.709,120.067 42.534,119.645 43.460 C 119.399 44.002,119.014 44.333,118.792 44.195 C 118.569 44.057,118.489 43.779,118.614 43.577 C 118.739 43.375,118.574 43.312,118.246 43.438 C 117.918 43.563,117.748 43.921,117.868 44.233 C 118.000 44.577,117.833 44.800,117.443 44.800 C 117.089 44.800,116.800 44.609,116.800 44.376 C 116.800 44.143,116.620 44.064,116.400 44.200 C 116.180 44.336,116.000 44.797,116.000 45.224 C 116.000 45.651,115.865 45.971,115.700 45.936 C 115.535 45.902,115.051 46.024,114.624 46.208 C 114.116 46.428,113.793 46.380,113.690 46.069 C 113.603 45.809,113.375 45.692,113.183 45.810 C 112.992 45.929,112.936 46.290,113.060 46.613 C 113.203 46.984,113.041 47.200,112.619 47.200 C 112.217 47.200,112.066 47.017,112.238 46.738 C 112.415 46.452,112.348 46.385,112.062 46.562 C 111.808 46.719,111.600 47.107,111.600 47.424 C 111.600 47.741,111.420 48.000,111.200 48.000 C 110.980 48.000,110.797 47.775,110.794 47.500 C 110.790 47.157,110.672 47.182,110.420 47.581 C 110.218 47.900,110.144 48.309,110.255 48.489 C 110.366 48.669,109.833 49.078,109.069 49.397 C 108.305 49.716,107.437 50.211,107.140 50.497 C 105.747 51.838,104.267 52.765,103.891 52.533 C 103.663 52.392,103.585 52.452,103.718 52.667 C 103.850 52.882,103.608 53.358,103.180 53.725 C 102.751 54.092,102.400 54.214,102.400 53.996 C 102.400 53.778,102.130 53.600,101.800 53.600 C 101.470 53.600,101.200 53.924,101.200 54.320 C 101.200 55.273,100.434 55.999,99.420 56.006 C 98.797 56.011,98.732 56.096,99.152 56.362 C 99.693 56.704,94.809 61.945,92.524 63.474 C 92.031 63.804,91.744 64.310,91.867 64.630 C 91.987 64.944,91.886 65.200,91.643 65.200 C 91.399 65.200,91.200 65.393,91.200 65.629 C 91.200 66.299,90.132 67.199,89.329 67.206 C 88.723 67.211,88.699 67.275,89.190 67.585 C 89.689 67.901,89.644 68.102,88.890 68.905 C 88.400 69.425,88.000 69.982,88.000 70.143 C 88.000 70.303,87.640 70.820,87.200 71.292 C 86.760 71.764,86.400 72.366,86.400 72.629 C 86.400 72.892,85.995 73.218,85.500 73.353 C 84.738 73.562,84.692 73.666,85.200 74.030 C 85.652 74.355,85.676 74.511,85.300 74.664 C 85.025 74.775,84.800 75.231,84.800 75.676 C 84.800 76.202,84.606 76.411,84.245 76.273 C 83.856 76.123,83.751 76.290,83.892 76.830 C 84.003 77.253,83.892 77.600,83.647 77.600 C 83.401 77.600,83.200 77.960,83.200 78.400 C 83.200 78.933,82.933 79.200,82.400 79.200 C 81.956 79.200,81.600 79.467,81.600 79.800 C 81.600 80.130,81.780 80.400,82.000 80.400 C 82.220 80.400,82.400 80.580,82.400 80.800 C 82.400 81.020,82.182 81.155,81.915 81.100 C 81.649 81.045,81.386 81.450,81.332 82.000 C 81.083 84.522,80.154 87.200,79.529 87.200 C 79.304 87.200,79.245 87.695,79.391 88.361 C 79.591 89.271,79.462 89.651,78.794 90.119 C 78.050 90.640,78.007 90.823,78.461 91.548 C 78.910 92.268,78.873 92.461,78.190 92.977 C 77.756 93.306,77.580 93.583,77.800 93.593 C 78.020 93.604,77.930 93.787,77.600 94.000 C 77.200 94.258,77.167 94.390,77.500 94.394 C 78.159 94.402,78.143 96.198,77.478 96.871 C 76.888 97.468,76.240 98.846,76.336 99.300 C 76.395 99.576,75.732 99.700,74.200 99.700 C 71.154 99.700,70.372 99.568,70.653 99.100 C 70.873 98.733,70.781 98.740,70.305 99.126 C 69.948 99.415,69.109 99.667,68.442 99.686 C 67.774 99.705,67.322 99.874,67.437 100.060 C 67.553 100.247,66.647 100.400,65.424 100.400 C 64.201 100.400,63.200 100.580,63.200 100.800 C 63.200 101.020,62.739 101.200,62.176 101.200 C 61.596 101.200,61.260 101.027,61.400 100.800 C 61.536 100.580,61.440 100.400,61.186 100.400 C 60.933 100.400,60.631 100.760,60.516 101.200 C 60.359 101.801,59.970 102.000,58.953 102.000 C 58.209 102.000,57.600 102.180,57.600 102.400 C 57.600 102.979,56.105 102.893,55.860 102.300 C 55.735 101.997,55.546 102.155,55.380 102.700 C 55.200 103.293,54.793 103.600,54.187 103.600 C 53.681 103.600,53.185 103.825,53.086 104.100 C 52.944 104.490,52.728 104.496,52.101 104.127 C 51.425 103.729,51.306 103.761,51.349 104.327 C 51.380 104.740,51.053 105.049,50.500 105.128 C 50.005 105.198,49.600 105.423,49.600 105.628 C 49.600 105.833,49.152 106.000,48.603 106.000 C 48.040 106.000,47.390 106.348,47.107 106.800 C 46.548 107.696,45.388 107.864,45.037 107.100 C 44.911 106.825,44.908 107.005,45.031 107.500 C 45.230 108.305,45.105 108.400,43.851 108.400 C 43.079 108.400,42.319 108.608,42.162 108.862 C 41.985 109.148,42.052 109.215,42.338 109.038 C 42.612 108.869,42.800 109.007,42.800 109.376 C 42.800 109.719,42.480 110.000,42.088 110.000 C 41.697 110.000,41.117 110.360,40.800 110.800 C 40.089 111.786,39.532 111.847,39.887 110.900 C 40.115 110.292,40.063 110.271,39.488 110.738 C 39.124 111.034,38.865 111.401,38.913 111.554 C 39.051 111.992,36.914 113.981,36.621 113.687 C 36.475 113.542,36.189 113.688,35.984 114.012 C 35.710 114.446,35.611 114.463,35.606 114.076 C 35.603 113.788,35.411 113.669,35.181 113.812 C 34.899 113.986,34.931 114.279,35.281 114.705 C 35.732 115.255,35.683 115.309,34.914 115.110 C 34.426 114.985,34.043 114.999,34.061 115.141 C 34.162 115.918,33.937 116.127,33.568 115.600 C 33.239 115.130,33.203 115.195,33.401 115.900 C 33.589 116.568,33.486 116.800,33.003 116.800 C 32.646 116.800,32.464 116.980,32.600 117.200 C 32.736 117.420,32.672 117.600,32.457 117.600 C 32.242 117.600,31.976 117.375,31.865 117.100 C 31.742 116.794,31.651 116.865,31.632 117.282 C 31.586 118.272,29.709 120.901,29.403 120.404 C 29.261 120.175,28.958 120.102,28.730 120.243 C 28.461 120.409,28.506 120.634,28.857 120.880 C 29.281 121.178,29.290 121.305,28.898 121.465 C 28.621 121.577,28.516 121.864,28.663 122.102 C 28.832 122.375,28.692 122.444,28.286 122.288 C 27.810 122.106,27.706 122.211,27.890 122.690 C 28.078 123.181,27.971 123.275,27.449 123.074 C 27.035 122.915,26.857 122.969,27.005 123.208 C 27.275 123.645,26.642 124.397,25.400 125.114 C 24.960 125.368,24.825 125.581,25.100 125.588 C 25.375 125.595,25.600 125.792,25.600 126.027 C 25.600 126.269,25.211 126.357,24.700 126.231 C 24.205 126.108,24.025 126.111,24.300 126.237 C 25.108 126.608,24.874 127.200,23.920 127.200 C 23.236 127.200,23.147 127.307,23.520 127.680 C 24.100 128.260,24.160 128.946,23.600 128.600 C 23.380 128.464,23.200 128.734,23.200 129.200 C 23.200 129.666,23.020 129.936,22.800 129.800 C 22.580 129.664,22.400 129.931,22.400 130.394 C 22.400 130.956,22.181 131.196,21.741 131.118 C 21.379 131.053,20.996 131.250,20.890 131.556 C 20.772 131.894,20.873 132.002,21.148 131.832 C 21.413 131.668,21.600 131.822,21.600 132.203 C 21.600 132.672,21.376 132.783,20.800 132.600 C 20.341 132.454,20.000 132.528,20.000 132.773 C 20.000 133.008,20.195 133.200,20.433 133.200 C 20.672 133.200,20.788 133.425,20.692 133.700 C 20.596 133.975,20.221 134.147,19.859 134.082 C 19.496 134.018,19.200 134.153,19.200 134.382 C 19.200 134.612,19.380 134.800,19.600 134.800 C 19.820 134.800,20.000 135.070,20.000 135.400 C 20.000 135.730,19.820 136.000,19.600 136.000 C 19.380 136.000,19.200 136.360,19.200 136.800 C 19.200 137.240,19.020 137.600,18.800 137.600 C 18.580 137.600,18.400 138.050,18.400 138.600 C 18.400 139.333,18.187 139.600,17.600 139.600 C 17.160 139.600,16.800 139.791,16.800 140.024 C 16.800 140.257,16.980 140.336,17.200 140.200 C 17.420 140.064,17.600 140.223,17.600 140.553 C 17.600 140.883,17.420 141.264,17.200 141.400 C 16.980 141.536,16.800 142.182,16.800 142.836 C 16.800 143.490,16.557 144.118,16.259 144.233 C 15.929 144.359,15.791 144.821,15.906 145.418 C 16.038 146.109,15.814 146.629,15.146 147.185 C 14.626 147.619,14.404 147.979,14.653 147.987 C 15.358 148.007,15.628 149.614,14.969 149.867 C 14.656 149.987,14.400 150.336,14.400 150.643 C 14.400 150.949,14.198 151.200,13.951 151.200 C 13.643 151.200,13.661 151.391,14.006 151.807 C 14.283 152.141,14.646 153.086,14.812 153.907 C 16.818 163.811,22.916 178.209,26.371 181.200 C 26.498 181.310,27.386 182.431,28.343 183.692 C 35.132 192.627,48.128 201.081,60.101 204.351 C 68.612 206.676,64.402 206.538,131.300 206.687 L 192.800 206.824 192.800 203.612 L 192.800 200.400 166.424 200.400 C 149.271 200.400,139.961 200.260,139.800 200.000 C 139.664 199.780,139.201 199.600,138.771 199.600 C 138.341 199.600,137.677 199.432,137.295 199.226 C 136.913 199.021,136.015 198.617,135.300 198.329 C 134.585 198.040,134.000 197.669,134.000 197.502 C 134.000 197.336,133.767 197.200,133.482 197.200 C 132.573 197.200,127.200 191.723,127.200 190.797 C 127.200 190.579,127.020 190.400,126.800 190.400 C 126.580 190.400,126.400 190.130,126.400 189.800 C 126.400 189.470,126.220 189.200,126.000 189.200 C 125.780 189.200,125.600 188.851,125.600 188.424 C 125.600 187.997,125.420 187.536,125.200 187.400 C 124.980 187.264,124.800 186.749,124.800 186.256 C 124.800 185.763,124.601 185.161,124.358 184.918 C 124.072 184.632,123.840 180.946,123.699 174.438 C 123.532 166.765,123.362 164.400,122.978 164.400 C 120.639 164.400,114.038 158.416,112.225 154.652 C 109.676 149.361,109.218 141.394,111.239 137.505 C 111.438 137.123,111.600 136.538,111.600 136.205 C 111.600 135.872,111.744 135.600,111.920 135.600 C 112.095 135.600,112.476 134.946,112.765 134.146 C 113.342 132.549,118.412 127.200,119.347 127.200 C 119.670 127.200,119.993 127.065,120.067 126.900 C 120.285 126.409,123.616 124.800,124.414 124.800 C 124.820 124.800,125.264 124.620,125.400 124.400 C 125.729 123.868,136.271 123.868,136.600 124.400 C 136.736 124.620,137.276 124.800,137.800 124.800 C 138.324 124.800,138.864 124.980,139.000 125.200 C 139.136 125.420,139.597 125.600,140.024 125.600 C 140.451 125.600,140.800 125.780,140.800 126.000 C 140.800 126.220,140.993 126.400,141.228 126.400 C 142.620 126.400,146.616 129.993,148.792 133.200 C 153.036 139.456,153.389 149.792,149.546 155.262 C 149.136 155.846,148.800 156.480,148.800 156.672 C 148.800 157.253,142.812 162.800,142.185 162.800 C 141.863 162.800,141.600 162.946,141.600 163.125 C 141.600 163.304,140.970 163.698,140.200 164.000 L 138.800 164.549 138.801 172.975 C 138.804 186.714,136.210 185.600,168.186 185.600 L 192.804 185.600 192.702 151.113 L 192.600 116.626 190.200 115.420 C 175.510 108.040,175.262 84.857,189.800 78.049 C 190.900 77.534,192.113 76.952,192.495 76.756 C 192.877 76.560,193.541 76.400,193.971 76.400 C 194.401 76.400,194.864 76.220,195.000 76.000 C 195.142 75.770,197.263 75.600,200.000 75.600 C 202.737 75.600,204.858 75.770,205.000 76.000 C 205.136 76.220,205.777 76.400,206.424 76.400 C 207.071 76.400,207.600 76.580,207.600 76.800 C 207.600 77.020,208.050 77.200,208.600 77.200 C 209.150 77.200,209.600 77.380,209.600 77.600 C 209.600 77.820,209.793 78.000,210.028 78.000 C 210.530 78.000,213.367 79.946,214.800 81.274 C 217.009 83.321,218.904 86.377,220.459 90.400 C 220.806 91.298,221.000 93.522,221.000 96.600 C 221.000 99.678,220.806 101.902,220.459 102.800 C 219.780 104.557,218.279 107.734,218.003 108.000 C 217.888 108.110,217.166 109.038,216.397 110.062 C 215.032 111.882,211.370 114.872,210.192 115.129 C 209.866 115.200,209.600 115.425,209.600 115.629 C 209.600 115.833,209.276 116.000,208.880 116.000 C 207.172 116.000,207.200 115.420,207.200 151.280 L 207.200 185.600 231.900 185.601 C 260.185 185.602,258.992 185.747,260.758 182.112 C 261.798 179.971,262.081 164.400,261.080 164.400 C 260.344 164.400,258.407 163.459,258.403 163.100 C 258.401 162.935,258.153 162.800,257.851 162.800 C 255.940 162.800,250.446 156.011,248.754 151.560 C 247.758 148.940,247.519 141.407,248.361 139.169 C 250.449 133.616,254.608 128.212,257.900 126.773 C 258.615 126.460,259.200 126.069,259.200 125.902 C 259.200 125.736,259.549 125.600,259.976 125.600 C 260.403 125.600,260.864 125.420,261.000 125.200 C 261.136 124.980,261.676 124.800,262.200 124.800 C 262.724 124.800,263.264 124.620,263.400 124.400 C 263.729 123.868,274.271 123.868,274.600 124.400 C 274.736 124.620,275.180 124.800,275.586 124.800 C 276.384 124.800,279.715 126.409,279.933 126.900 C 280.007 127.065,280.286 127.200,280.553 127.200 C 280.820 127.200,281.953 128.009,283.069 128.997 C 294.278 138.922,291.622 157.886,278.164 164.016 L 276.521 164.765 276.300 174.623 C 276.157 180.960,275.921 184.639,275.639 184.921 C 275.398 185.162,275.200 185.763,275.200 186.256 C 275.200 186.749,275.020 187.264,274.800 187.400 C 274.580 187.536,274.400 187.929,274.400 188.273 C 274.400 190.776,266.007 198.800,263.389 198.800 C 263.065 198.800,262.800 198.980,262.800 199.200 C 262.800 199.420,262.271 199.600,261.624 199.600 C 260.977 199.600,260.336 199.780,260.200 200.000 C 260.039 200.260,250.729 200.400,233.576 200.400 L 207.200 200.400 207.200 202.967 C 207.200 204.379,207.309 205.819,207.443 206.167 C 207.742 206.947,309.528 207.142,317.431 206.378 C 344.436 203.767,366.587 188.456,378.496 164.169 C 379.468 162.186,380.369 160.211,380.497 159.781 C 380.625 159.352,381.125 157.920,381.609 156.600 C 382.644 153.773,384.024 148.409,384.987 143.469 C 385.636 140.142,385.633 138.449,384.972 135.243 C 384.747 134.152,384.801 133.948,385.246 134.202 C 385.694 134.457,385.704 134.414,385.300 133.979 C 385.025 133.682,384.800 133.105,384.800 132.696 C 384.800 132.287,384.640 132.052,384.445 132.172 C 384.249 132.293,384.011 131.858,383.916 131.206 C 383.796 130.393,383.883 130.111,384.190 130.310 C 384.436 130.469,384.314 130.301,383.919 129.936 C 383.523 129.571,383.200 128.806,383.200 128.236 C 383.200 127.666,382.999 127.200,382.753 127.200 C 382.489 127.200,382.387 126.779,382.504 126.168 C 382.629 125.513,382.500 125.060,382.151 124.926 C 381.848 124.809,381.600 124.284,381.600 123.757 C 381.600 123.231,381.420 122.800,381.200 122.800 C 380.621 122.800,380.707 121.304,381.300 121.065 C 381.575 120.954,381.428 120.849,380.972 120.832 C 380.328 120.807,380.025 120.360,379.605 118.818 C 379.308 117.728,378.916 116.929,378.733 117.042 C 378.550 117.155,378.400 116.877,378.400 116.424 C 378.400 115.971,378.220 115.600,378.000 115.600 C 377.780 115.600,377.600 115.330,377.600 115.000 C 377.600 114.670,377.399 114.400,377.153 114.400 C 376.904 114.400,376.799 114.047,376.916 113.599 C 377.031 113.159,376.961 112.901,376.760 113.025 C 376.148 113.403,375.838 111.951,376.442 111.533 C 376.843 111.256,376.747 111.219,376.100 111.401 C 375.375 111.605,375.200 111.493,375.200 110.827 C 375.200 110.372,375.026 110.000,374.813 110.000 C 374.599 110.000,374.529 109.728,374.657 109.395 C 374.823 108.963,374.706 108.861,374.245 109.038 C 373.890 109.174,373.600 109.086,373.600 108.843 C 373.600 108.599,373.780 108.400,374.000 108.400 C 374.220 108.400,374.400 108.220,374.400 108.000 C 374.400 107.780,374.130 107.600,373.800 107.600 C 373.470 107.600,373.200 107.420,373.200 107.200 C 373.200 106.980,372.930 106.800,372.600 106.800 C 372.270 106.800,372.000 106.620,372.000 106.400 C 372.000 106.180,372.202 106.000,372.449 106.000 C 372.779 106.000,372.780 105.858,372.452 105.463 C 372.207 105.168,372.140 104.779,372.303 104.599 C 372.467 104.419,372.391 104.391,372.136 104.537 C 371.405 104.956,370.400 104.389,370.400 103.557 C 370.400 103.141,370.230 102.800,370.023 102.800 C 369.816 102.800,369.713 102.450,369.796 102.023 C 369.902 101.472,369.774 101.312,369.358 101.472 C 368.477 101.809,367.253 100.510,367.478 99.477 C 367.595 98.942,367.539 98.781,367.334 99.064 C 367.090 99.400,366.729 99.310,366.020 98.736 C 365.206 98.076,365.139 97.878,365.621 97.546 C 366.053 97.249,365.972 97.212,365.300 97.401 C 364.473 97.633,364.006 97.087,364.700 96.699 C 364.865 96.607,364.765 96.590,364.478 96.662 C 363.758 96.841,361.891 94.900,362.240 94.335 C 362.412 94.058,362.347 93.985,362.077 94.152 C 361.557 94.474,358.403 91.557,358.394 90.747 C 358.389 90.304,358.318 90.310,358.024 90.775 C 357.730 91.240,357.434 91.107,356.470 90.075 C 355.815 89.374,354.979 88.800,354.613 88.800 C 354.122 88.800,354.005 88.563,354.169 87.900 C 354.292 87.405,354.289 87.225,354.163 87.500 C 353.846 88.189,353.174 88.134,353.440 87.440 C 353.558 87.133,353.434 86.745,353.165 86.579 C 352.853 86.385,352.779 86.443,352.962 86.738 C 353.437 87.508,352.215 87.260,351.292 86.400 C 350.820 85.960,350.246 85.600,350.017 85.600 C 349.788 85.600,349.600 85.240,349.600 84.800 C 349.600 84.360,349.420 84.000,349.200 84.000 C 348.980 84.000,348.800 84.180,348.800 84.400 C 348.800 84.999,348.247 84.884,347.355 84.100 C 346.157 83.046,344.809 82.347,344.429 82.582 C 344.243 82.697,343.868 82.523,343.596 82.196 C 343.324 81.868,342.753 81.600,342.327 81.600 C 341.843 81.600,341.660 81.427,341.839 81.137 C 342.036 80.818,341.849 80.746,341.238 80.906 C 340.659 81.057,340.272 80.932,340.124 80.546 C 339.995 80.209,339.631 80.056,339.280 80.191 C 338.941 80.321,338.524 80.201,338.353 79.924 C 338.182 79.647,337.628 79.416,337.121 79.410 C 336.582 79.404,336.244 79.185,336.306 78.881 C 336.386 78.494,336.049 78.430,334.991 78.628 C 333.899 78.833,333.595 78.768,333.684 78.347 C 333.761 77.982,333.492 77.843,332.875 77.929 C 332.290 78.011,331.571 77.680,330.920 77.029 C 330.354 76.463,329.690 76.014,329.445 76.032 C 329.178 76.051,329.200 76.144,329.502 76.266 C 330.211 76.551,329.707 77.200,328.776 77.200 C 327.936 77.200,327.676 76.418,328.500 76.372 C 328.775 76.356,328.640 76.197,328.200 76.017 C 327.760 75.838,327.229 75.850,327.020 76.045 C 326.506 76.525,324.906 76.495,324.600 76.000 C 324.458 75.771,324.818 75.600,325.443 75.600 C 326.945 75.600,326.382 75.157,324.824 75.113 C 323.581 75.078,323.567 75.055,323.653 73.164 C 323.703 72.066,323.521 70.987,323.225 70.630 C 322.896 70.234,322.802 69.517,322.964 68.651 C 323.149 67.666,323.062 67.233,322.649 67.074 C 322.285 66.934,322.104 66.344,322.146 65.435 C 322.188 64.545,322.007 63.935,321.661 63.802 C 321.323 63.672,321.195 63.263,321.331 62.743 C 321.454 62.272,321.304 61.647,320.993 61.336 C 320.354 60.696,320.649 59.464,321.342 59.879 C 321.594 60.030,321.536 59.804,321.213 59.377 C 320.319 58.193,320.253 58.146,320.516 58.880 C 320.675 59.324,320.587 59.493,320.261 59.368 C 319.945 59.247,319.825 58.652,319.932 57.734 C 320.049 56.733,319.962 56.376,319.650 56.569 C 319.390 56.730,319.200 56.584,319.200 56.224 C 319.200 55.881,319.425 55.597,319.700 55.594 C 320.043 55.590,320.018 55.472,319.619 55.220 C 319.300 55.018,318.913 54.930,318.761 55.024 C 318.609 55.118,318.378 54.920,318.249 54.583 C 318.114 54.233,318.272 53.870,318.617 53.738 C 319.079 53.561,319.114 53.378,318.765 52.958 C 318.514 52.656,318.150 52.507,317.955 52.628 C 317.760 52.749,317.600 52.556,317.600 52.200 C 317.600 51.844,317.780 51.664,318.000 51.800 C 318.220 51.936,318.400 51.857,318.400 51.624 C 318.400 51.391,318.040 51.200,317.600 51.200 C 317.067 51.200,316.800 50.933,316.800 50.400 C 316.800 49.960,316.620 49.600,316.400 49.600 C 316.180 49.600,316.000 49.240,316.000 48.800 C 316.000 48.360,315.820 48.000,315.600 48.000 C 315.380 48.000,315.200 47.640,315.200 47.200 C 315.200 46.760,315.020 46.400,314.800 46.400 C 314.580 46.400,314.400 46.040,314.400 45.600 C 314.400 45.160,314.199 44.800,313.953 44.800 C 313.708 44.800,313.597 44.453,313.708 44.030 C 313.849 43.490,313.744 43.323,313.355 43.473 C 313.050 43.590,312.800 43.486,312.800 43.243 C 312.800 42.999,313.025 42.795,313.300 42.788 C 313.575 42.781,313.440 42.568,313.000 42.314 C 311.840 41.644,311.200 40.934,311.200 40.317 C 311.200 40.020,310.840 39.517,310.400 39.200 C 309.492 38.545,309.362 37.780,310.100 37.429 C 310.375 37.298,310.223 37.259,309.763 37.342 C 308.690 37.535,307.633 36.079,308.463 35.553 C 308.847 35.309,308.731 35.211,308.057 35.206 C 307.371 35.202,307.179 35.031,307.353 34.579 C 307.484 34.238,307.422 34.063,307.216 34.190 C 307.010 34.317,306.106 33.426,305.206 32.209 C 304.307 30.991,302.660 29.108,301.546 28.023 C 300.276 26.786,299.634 25.869,299.823 25.564 C 300.012 25.256,299.957 25.180,299.671 25.356 C 299.409 25.518,298.022 24.454,296.362 22.818 C 294.791 21.268,293.341 20.000,293.139 20.000 C 292.542 20.000,290.000 17.277,290.000 16.636 C 290.000 16.251,289.707 16.102,289.155 16.209 C 288.135 16.405,285.603 14.587,285.594 13.653 C 285.589 13.146,285.512 13.119,285.252 13.530 C 284.980 13.958,284.794 13.937,284.272 13.415 C 283.918 13.061,283.487 12.733,283.314 12.686 C 283.141 12.639,283.025 12.375,283.056 12.100 C 283.126 11.468,282.701 11.459,282.080 12.080 C 281.707 12.453,281.600 12.453,281.600 12.080 C 281.600 11.816,281.330 11.600,281.000 11.600 C 280.274 11.600,280.203 10.944,280.900 10.669 C 281.175 10.561,280.950 10.489,280.400 10.510 C 278.698 10.575,277.229 9.989,277.477 9.343 C 277.654 8.881,277.469 8.818,276.591 9.038 C 275.804 9.236,275.563 9.183,275.764 8.858 C 275.941 8.572,275.747 8.400,275.247 8.400 C 274.807 8.400,274.336 8.220,274.200 8.000 C 274.064 7.780,273.603 7.600,273.176 7.600 C 272.667 7.600,272.400 7.325,272.400 6.800 C 272.400 6.342,272.133 6.000,271.776 6.000 C 271.433 6.000,271.264 6.180,271.400 6.400 C 271.536 6.620,271.367 6.800,271.024 6.800 C 270.681 6.800,270.400 6.620,270.400 6.400 C 270.400 6.180,269.950 6.000,269.400 6.000 C 268.639 6.000,268.392 5.785,268.368 5.100 C 268.351 4.605,268.246 4.425,268.135 4.700 C 268.024 4.975,267.578 5.200,267.143 5.200 C 266.708 5.200,266.464 5.020,266.600 4.800 C 266.747 4.562,266.271 4.400,265.424 4.400 C 264.641 4.400,264.000 4.220,264.000 4.000 C 264.000 3.780,263.460 3.600,262.800 3.600 C 262.140 3.600,261.600 3.420,261.600 3.200 C 261.600 2.980,260.981 2.800,260.224 2.800 C 259.467 2.800,258.736 2.620,258.600 2.400 C 258.464 2.180,257.778 1.996,257.076 1.991 C 256.374 1.986,255.350 1.630,254.800 1.200 C 254.250 0.770,253.530 0.426,253.200 0.437 C 252.806 0.450,252.875 0.574,253.400 0.800 C 254.028 1.070,253.851 1.150,252.580 1.172 C 251.689 1.187,250.765 1.005,250.527 0.767 C 250.084 0.324,234.118 -0.017,227.887 0.284 M121.600 43.200 C 121.600 43.420,121.229 43.600,120.776 43.600 C 120.323 43.600,120.064 43.420,120.200 43.200 C 120.336 42.980,120.707 42.800,121.024 42.800 C 121.341 42.800,121.600 42.980,121.600 43.200 " stroke="none" fill="#ebf3f3" fill-rule="evenodd"></path><path id="path5" d="M193.102 151.255 L 193.000 186.200 170.200 186.320 C 136.237 186.498,138.273 187.287,138.089 173.872 C 137.960 164.445,137.964 164.470,136.575 165.380 C 135.491 166.090,127.270 166.123,125.300 165.425 L 124.400 165.107 124.405 173.853 C 124.412 186.805,126.293 191.560,133.304 196.345 C 138.600 199.959,138.701 199.969,167.950 199.986 L 193.299 200.000 193.006 227.100 C 192.844 242.005,192.674 254.242,192.628 254.294 C 192.582 254.346,170.372 254.396,143.272 254.406 C 111.702 254.417,94.000 254.563,94.000 254.812 C 94.000 255.025,93.089 255.200,91.976 255.200 C 90.729 255.200,90.048 255.353,90.200 255.600 C 90.340 255.826,90.012 256.000,89.447 256.000 C 88.897 256.000,88.336 256.180,88.200 256.400 C 88.064 256.620,87.603 256.800,87.176 256.800 C 86.749 256.800,86.399 256.935,86.397 257.100 C 86.395 257.426,84.457 258.664,82.694 259.464 C 82.086 259.740,81.631 260.109,81.684 260.283 C 81.736 260.457,81.104 261.320,80.280 262.200 C 79.456 263.080,78.675 264.210,78.545 264.711 C 78.415 265.211,77.960 265.807,77.535 266.035 C 77.007 266.317,76.840 266.696,77.008 267.226 C 77.166 267.722,77.040 268.087,76.661 268.232 C 76.245 268.391,76.119 268.870,76.238 269.830 C 76.338 270.641,76.233 271.200,75.980 271.200 C 75.745 271.200,75.655 271.365,75.779 271.566 C 75.903 271.767,75.862 271.992,75.688 272.066 C 75.513 272.140,75.442 276.115,75.530 280.900 L 75.689 289.600 82.845 289.600 L 90.000 289.600 90.046 282.500 C 90.105 273.414,90.533 271.664,92.900 270.829 C 93.505 270.616,94.000 270.297,94.000 270.120 C 94.000 269.728,222.724 269.480,305.288 269.713 C 305.886 269.715,306.304 269.832,306.217 269.973 C 306.129 270.115,306.585 270.464,307.229 270.749 C 307.873 271.034,308.400 271.522,308.400 271.834 C 308.400 272.145,308.599 272.400,308.843 272.400 C 309.086 272.400,309.190 272.648,309.074 272.951 C 308.958 273.254,309.071 273.711,309.327 273.967 C 309.903 274.543,309.866 274.028,309.939 282.500 L 310.000 289.600 317.200 289.600 L 324.400 289.600 324.431 282.200 C 324.448 278.130,324.475 274.108,324.492 273.261 C 324.509 272.415,324.395 271.516,324.239 271.263 C 324.083 271.010,323.877 270.398,323.781 269.903 C 323.686 269.408,323.426 268.942,323.204 268.868 C 322.982 268.794,322.800 268.201,322.800 267.550 C 322.800 266.899,322.615 266.149,322.388 265.883 C 322.161 265.617,321.252 264.410,320.367 263.200 C 319.483 261.990,318.603 261.000,318.413 261.000 C 318.222 261.000,317.932 260.865,317.767 260.700 C 317.602 260.535,317.687 260.400,317.957 260.400 C 318.227 260.400,318.334 260.217,318.196 259.993 C 318.058 259.770,317.777 259.691,317.572 259.817 C 317.368 259.944,317.200 259.857,317.200 259.624 C 317.200 259.391,316.958 259.200,316.662 259.200 C 316.366 259.200,315.802 258.844,315.409 258.409 C 315.015 257.975,314.537 257.715,314.347 257.833 C 314.156 257.951,313.998 257.812,313.996 257.524 C 313.992 256.920,310.548 255.621,308.200 255.338 C 307.320 255.232,306.541 254.980,306.469 254.779 C 306.390 254.559,286.508 254.408,256.899 254.403 C 229.708 254.398,207.421 254.351,207.373 254.297 C 207.324 254.244,207.220 242.050,207.142 227.200 L 207.000 200.200 233.000 199.980 C 258.961 199.760,259.930 199.706,263.296 198.279 C 272.408 194.415,275.588 188.100,275.595 173.853 L 275.600 165.107 274.700 165.426 C 273.359 165.902,264.000 166.115,264.000 165.670 C 264.000 165.463,263.656 165.203,263.235 165.093 C 262.124 164.803,262.012 165.616,262.004 174.000 C 261.996 182.312,261.847 182.855,258.966 185.054 L 257.463 186.200 232.597 186.319 C 211.712 186.420,207.656 186.350,207.267 185.881 C 206.926 185.470,206.778 176.220,206.702 150.790 C 206.607 118.461,206.557 116.300,205.929 116.929 C 204.963 117.894,195.653 117.915,194.188 116.955 L 193.204 116.311 193.102 151.255 " stroke="none" fill="#fb7584" fill-rule="evenodd"></path><path id="path6" d="M195.600 76.172 C 188.182 78.137,183.004 82.642,180.394 89.400 C 178.863 93.363,179.153 102.606,180.870 104.580 C 181.051 104.789,181.200 105.216,181.200 105.529 C 181.200 107.653,187.191 113.597,191.110 115.361 L 192.800 116.121 192.800 151.058 L 192.800 185.994 168.800 186.102 L 144.800 186.209 168.900 186.205 L 193.000 186.200 193.091 151.000 L 193.182 115.800 190.722 114.600 C 176.046 107.441,176.266 85.477,191.084 78.330 C 193.517 77.156,194.522 76.876,198.930 76.142 C 203.315 75.411,210.159 78.113,214.220 82.177 C 224.048 92.016,221.521 108.747,209.322 114.609 L 206.843 115.800 206.919 150.800 L 206.996 185.800 207.100 150.993 L 207.204 116.187 209.287 115.198 C 220.525 109.863,224.265 95.363,217.143 84.744 C 212.588 77.953,203.111 74.182,195.600 76.172 M126.000 124.574 C 115.514 127.502,108.665 137.629,110.360 147.700 C 110.828 150.481,110.992 151.034,112.089 153.500 C 113.921 157.619,117.676 161.461,121.893 163.532 L 123.985 164.559 124.101 173.380 L 124.216 182.200 124.308 173.198 L 124.400 164.195 123.100 163.632 C 115.343 160.274,111.021 153.543,111.009 144.800 C 111.001 139.347,111.520 137.600,114.465 133.157 C 124.109 118.610,147.225 123.370,151.011 140.682 C 151.433 142.611,151.523 142.765,151.545 141.600 C 151.714 132.944,141.004 123.910,130.723 124.036 C 129.115 124.055,126.990 124.298,126.000 124.574 M263.995 124.548 C 244.845 130.070,242.538 156.139,260.512 163.913 C 261.123 164.177,261.796 164.800,262.008 165.297 L 262.392 166.200 262.296 165.230 C 262.225 164.514,261.679 163.992,260.200 163.229 C 241.013 153.324,247.568 124.400,269.000 124.400 C 290.098 124.400,297.015 153.783,278.086 163.000 L 275.622 164.200 275.703 173.400 L 275.784 182.600 275.899 173.568 L 276.015 164.536 277.907 163.673 C 287.254 159.411,292.337 147.534,288.809 138.200 C 284.928 127.929,273.697 121.751,263.995 124.548 M151.590 144.700 C 151.543 152.013,147.072 159.352,140.547 162.828 C 139.060 163.620,137.774 164.477,137.689 164.733 C 136.917 167.050,146.743 159.179,148.713 155.902 C 150.901 152.264,153.140 143.200,151.852 143.200 C 151.713 143.200,151.596 143.875,151.590 144.700 M219.529 186.300 C 226.199 186.361,236.999 186.361,243.529 186.300 C 250.058 186.238,244.600 186.188,231.400 186.188 C 218.200 186.188,212.858 186.238,219.529 186.300 M192.980 213.600 C 192.980 221.190,193.034 224.295,193.099 220.500 C 193.165 216.705,193.165 210.495,193.099 206.700 C 193.034 202.905,192.980 206.010,192.980 213.600 M206.980 213.800 C 206.980 221.280,207.034 224.283,207.099 220.474 C 207.165 216.665,207.165 210.545,207.099 206.874 C 207.033 203.203,206.979 206.320,206.980 213.800 " stroke="none" fill="#efc08f" fill-rule="evenodd"></path><path id="path7" d="M227.507 0.290 C 228.226 0.379,229.306 0.377,229.907 0.286 C 230.508 0.195,229.920 0.122,228.600 0.124 C 227.280 0.126,226.788 0.201,227.507 0.290 M245.507 0.290 C 246.226 0.379,247.306 0.377,247.907 0.286 C 248.508 0.195,247.920 0.122,246.600 0.124 C 245.280 0.126,244.788 0.201,245.507 0.290 M222.600 0.800 C 222.453 1.039,222.937 1.200,223.800 1.200 C 224.663 1.200,225.147 1.039,225.000 0.800 C 224.679 0.281,222.921 0.281,222.600 0.800 M250.600 0.800 C 250.736 1.020,251.512 1.197,252.324 1.194 C 253.424 1.189,253.647 1.089,253.200 0.800 C 252.402 0.284,250.281 0.284,250.600 0.800 M218.400 1.594 C 218.400 2.070,220.262 2.148,220.549 1.683 C 220.656 1.509,220.217 1.326,219.572 1.277 C 218.928 1.227,218.400 1.370,218.400 1.594 M255.400 1.600 C 255.536 1.820,255.997 2.000,256.424 2.000 C 256.851 2.000,257.200 1.820,257.200 1.600 C 257.200 1.380,256.739 1.200,256.176 1.200 C 255.596 1.200,255.260 1.373,255.400 1.600 M215.600 2.400 C 215.600 2.620,215.960 2.800,216.400 2.800 C 216.840 2.800,217.200 2.620,217.200 2.400 C 217.200 2.180,216.840 2.000,216.400 2.000 C 215.960 2.000,215.600 2.180,215.600 2.400 M258.600 2.400 C 258.736 2.620,259.197 2.800,259.624 2.800 C 260.051 2.800,260.400 2.620,260.400 2.400 C 260.400 2.180,259.939 2.000,259.376 2.000 C 258.796 2.000,258.460 2.173,258.600 2.400 M213.000 3.200 C 212.864 3.420,213.134 3.600,213.600 3.600 C 214.066 3.600,214.336 3.420,214.200 3.200 C 214.064 2.980,213.794 2.800,213.600 2.800 C 213.406 2.800,213.136 2.980,213.000 3.200 M261.600 3.200 C 261.600 3.420,261.971 3.600,262.424 3.600 C 262.877 3.600,263.136 3.420,263.000 3.200 C 262.864 2.980,262.493 2.800,262.176 2.800 C 261.859 2.800,261.600 2.980,261.600 3.200 M210.200 4.000 C 210.059 4.228,210.404 4.400,211.000 4.400 C 211.596 4.400,211.941 4.228,211.800 4.000 C 211.664 3.780,211.304 3.600,211.000 3.600 C 210.696 3.600,210.336 3.780,210.200 4.000 M264.000 4.000 C 264.000 4.220,264.461 4.400,265.024 4.400 C 265.604 4.400,265.940 4.227,265.800 4.000 C 265.664 3.780,265.203 3.600,264.776 3.600 C 264.349 3.600,264.000 3.780,264.000 4.000 M208.400 4.800 C 208.400 5.020,208.670 5.200,209.000 5.200 C 209.330 5.200,209.600 5.020,209.600 4.800 C 209.600 4.580,209.330 4.400,209.000 4.400 C 208.670 4.400,208.400 4.580,208.400 4.800 M206.000 5.600 C 206.000 5.820,206.270 6.000,206.600 6.000 C 206.930 6.000,207.200 5.820,207.200 5.600 C 207.200 5.380,206.930 5.200,206.600 5.200 C 206.270 5.200,206.000 5.380,206.000 5.600 M268.400 5.600 C 268.400 5.820,268.805 5.997,269.300 5.994 C 270.028 5.989,270.085 5.914,269.600 5.600 C 268.824 5.099,268.400 5.099,268.400 5.600 M203.000 6.800 C 202.340 7.208,201.504 7.555,201.143 7.571 C 200.781 7.587,200.390 7.850,200.273 8.155 C 200.037 8.768,201.438 8.586,201.830 7.952 C 201.949 7.758,202.377 7.600,202.781 7.600 C 203.184 7.600,203.623 7.318,203.755 6.972 C 203.921 6.540,204.261 6.429,204.848 6.615 C 205.422 6.797,205.611 6.741,205.426 6.443 C 205.050 5.834,204.410 5.929,203.000 6.800 M277.448 9.522 C 277.339 9.699,277.778 10.043,278.425 10.287 C 279.745 10.785,279.951 10.555,278.900 9.757 C 278.082 9.136,277.723 9.078,277.448 9.522 M280.234 10.943 C 280.372 11.305,280.736 11.600,281.043 11.600 C 281.349 11.600,281.600 11.791,281.600 12.024 C 281.600 12.257,281.789 12.331,282.019 12.188 C 282.305 12.011,282.287 11.746,281.962 11.355 C 281.700 11.039,281.393 10.873,281.280 10.987 C 281.166 11.100,280.828 10.989,280.528 10.740 C 280.096 10.382,280.035 10.425,280.234 10.943 M193.660 11.700 C 193.385 11.975,193.034 12.201,192.880 12.203 C 192.726 12.205,192.155 12.520,191.611 12.903 C 190.343 13.797,190.915 13.795,192.854 12.900 C 194.223 12.268,195.237 11.200,194.467 11.200 C 194.298 11.200,193.935 11.425,193.660 11.700 M282.899 12.447 C 283.010 12.751,283.303 12.955,283.550 12.900 C 283.798 12.845,284.000 12.961,284.000 13.157 C 284.000 13.354,284.270 13.618,284.600 13.745 C 285.680 14.159,285.229 13.390,283.949 12.634 C 283.041 12.097,282.753 12.046,282.899 12.447 M189.600 14.224 C 189.600 14.567,189.420 14.736,189.200 14.600 C 188.980 14.464,188.800 14.543,188.800 14.776 C 188.800 15.340,189.327 15.313,189.920 14.720 C 190.504 14.136,190.542 13.600,190.000 13.600 C 189.780 13.600,189.600 13.881,189.600 14.224 M285.632 13.853 C 285.595 14.371,288.349 16.584,288.653 16.281 C 288.934 15.999,287.153 14.400,286.558 14.400 C 286.288 14.400,285.976 14.175,285.865 13.900 C 285.737 13.583,285.652 13.566,285.632 13.853 M186.598 16.402 C 186.198 16.844,185.959 17.292,186.066 17.400 C 186.173 17.507,186.651 17.145,187.128 16.597 C 188.154 15.417,187.655 15.234,186.598 16.402 M290.000 16.964 C 290.000 17.415,292.749 20.000,293.229 20.000 C 293.480 20.000,293.154 19.505,292.506 18.900 C 290.708 17.223,290.000 16.676,290.000 16.964 M184.149 18.115 C 183.901 18.382,183.316 18.913,182.849 19.296 C 182.382 19.679,182.003 20.219,182.006 20.496 C 182.010 20.808,182.124 20.847,182.306 20.599 C 182.468 20.379,183.281 19.614,184.114 18.899 C 184.947 18.185,185.397 17.607,185.114 17.615 C 184.831 17.624,184.397 17.849,184.149 18.115 M294.000 20.199 C 294.000 20.362,296.205 22.690,298.900 25.372 C 301.595 28.054,304.610 31.361,305.600 32.720 C 307.459 35.273,307.867 35.614,307.867 34.618 C 307.867 34.297,307.750 34.107,307.607 34.196 C 307.464 34.284,307.012 33.781,306.602 33.078 C 306.192 32.375,305.529 31.509,305.128 31.153 C 304.728 30.797,304.400 30.373,304.400 30.211 C 304.400 30.048,302.359 27.909,299.865 25.458 C 294.830 20.509,294.000 19.765,294.000 20.199 M179.018 22.618 C 178.387 23.160,177.979 23.712,178.111 23.844 C 178.243 23.977,178.832 23.605,179.418 23.018 C 180.801 21.635,180.506 21.340,179.018 22.618 M175.511 26.165 C 172.830 28.931,171.600 30.383,171.600 30.780 C 171.600 30.981,171.240 31.260,170.800 31.400 C 169.996 31.655,169.793 32.059,170.242 32.509 C 170.475 32.742,172.400 31.061,172.400 30.625 C 172.400 30.384,173.823 28.770,176.319 26.182 C 177.264 25.202,177.854 24.400,177.629 24.400 C 177.405 24.400,176.451 25.194,175.511 26.165 M168.202 34.798 C 167.803 35.239,167.662 35.600,167.889 35.600 C 168.392 35.600,169.390 34.457,169.121 34.188 C 169.015 34.082,168.602 34.356,168.202 34.798 M308.013 35.900 C 308.036 36.439,309.073 37.594,309.316 37.351 C 309.596 37.071,308.745 35.600,308.304 35.600 C 308.137 35.600,308.006 35.735,308.013 35.900 M165.443 38.807 C 164.668 39.978,164.542 40.400,164.967 40.400 C 165.286 40.400,165.674 39.996,165.831 39.502 C 165.988 39.007,166.387 38.405,166.719 38.163 C 167.097 37.886,167.168 37.627,166.909 37.468 C 166.683 37.328,166.023 37.930,165.443 38.807 M309.600 38.112 C 309.600 38.393,309.960 38.883,310.400 39.200 C 310.840 39.517,311.200 40.020,311.200 40.317 C 311.200 41.017,312.357 42.176,312.707 41.826 C 312.856 41.678,312.802 41.431,312.587 41.278 C 312.373 41.125,311.679 40.235,311.044 39.300 C 309.811 37.482,309.600 37.308,309.600 38.112 M138.200 38.400 C 138.045 38.650,138.870 38.800,140.400 38.800 C 141.930 38.800,142.755 38.650,142.600 38.400 C 142.464 38.180,141.474 38.000,140.400 38.000 C 139.326 38.000,138.336 38.180,138.200 38.400 M150.800 38.400 C 150.800 38.620,151.801 38.800,153.024 38.800 C 154.404 38.800,155.153 38.648,155.000 38.400 C 154.864 38.180,153.863 38.000,152.776 38.000 C 151.689 38.000,150.800 38.180,150.800 38.400 M133.200 39.200 C 133.200 39.420,133.819 39.600,134.576 39.600 C 135.333 39.600,136.064 39.420,136.200 39.200 C 136.349 38.958,135.804 38.800,134.824 38.800 C 133.931 38.800,133.200 38.980,133.200 39.200 M157.400 39.200 C 157.714 39.707,159.215 39.707,160.000 39.200 C 160.439 38.916,160.137 38.811,158.876 38.806 C 157.828 38.802,157.250 38.957,157.400 39.200 M129.600 40.000 C 129.600 40.220,130.039 40.400,130.576 40.400 C 131.113 40.400,131.664 40.220,131.800 40.000 C 131.944 39.767,131.537 39.600,130.824 39.600 C 130.151 39.600,129.600 39.780,129.600 40.000 M161.396 40.006 C 161.257 40.232,161.675 40.400,162.376 40.400 C 163.049 40.400,163.600 40.259,163.600 40.087 C 163.600 39.621,161.678 39.550,161.396 40.006 M127.200 40.800 C 127.200 41.020,127.560 41.200,128.000 41.200 C 128.440 41.200,128.800 41.020,128.800 40.800 C 128.800 40.580,128.440 40.400,128.000 40.400 C 127.560 40.400,127.200 40.580,127.200 40.800 M124.000 41.533 C 124.000 41.790,123.651 42.000,123.224 42.000 C 122.797 42.000,122.336 42.180,122.200 42.400 C 122.064 42.620,122.301 42.800,122.727 42.800 C 123.571 42.800,124.671 41.738,124.257 41.324 C 124.116 41.182,124.000 41.277,124.000 41.533 M124.800 41.600 C 124.800 41.820,125.070 42.000,125.400 42.000 C 125.730 42.000,126.000 41.820,126.000 41.600 C 126.000 41.380,125.730 41.200,125.400 41.200 C 125.070 41.200,124.800 41.380,124.800 41.600 M120.200 43.200 C 120.064 43.420,120.323 43.600,120.776 43.600 C 121.229 43.600,121.600 43.420,121.600 43.200 C 121.600 42.980,121.341 42.800,121.024 42.800 C 120.707 42.800,120.336 42.980,120.200 43.200 M312.800 43.200 C 312.800 43.420,312.980 43.600,313.200 43.600 C 313.420 43.600,313.600 43.870,313.600 44.200 C 313.600 44.530,313.780 44.800,314.000 44.800 C 314.539 44.800,314.484 44.344,313.843 43.500 C 313.252 42.721,312.800 42.591,312.800 43.200 M115.200 45.139 C 115.200 45.325,114.795 45.673,114.300 45.912 C 113.617 46.241,113.563 46.352,114.076 46.373 C 114.448 46.388,114.866 46.217,115.004 45.993 C 115.142 45.770,115.423 45.691,115.628 45.817 C 115.832 45.944,116.000 45.767,116.000 45.424 C 116.000 45.081,115.820 44.800,115.600 44.800 C 115.380 44.800,115.200 44.952,115.200 45.139 M315.200 47.376 C 315.200 47.719,315.380 48.000,315.600 48.000 C 315.820 48.000,316.000 48.360,316.000 48.800 C 316.000 49.240,316.180 49.600,316.400 49.600 C 316.620 49.600,316.800 49.960,316.800 50.400 C 316.800 50.840,316.980 51.200,317.200 51.200 C 317.750 51.200,317.719 51.044,316.754 48.991 C 315.839 47.045,315.200 46.381,315.200 47.376 M109.096 48.580 C 108.360 49.118,108.184 49.600,108.724 49.600 C 109.336 49.600,110.521 48.522,110.156 48.297 C 109.955 48.172,109.478 48.300,109.096 48.580 M105.959 50.899 C 105.212 51.614,104.555 52.154,104.500 52.099 C 104.445 52.045,104.190 52.000,103.933 52.000 C 103.677 52.000,103.586 52.119,103.731 52.264 C 103.876 52.409,103.636 52.780,103.197 53.087 C 102.759 53.394,102.403 53.860,102.406 54.123 C 102.410 54.432,102.516 54.456,102.706 54.190 C 102.868 53.964,103.810 53.156,104.800 52.393 C 107.330 50.445,108.218 49.600,107.735 49.600 C 107.506 49.600,106.707 50.185,105.959 50.899 M318.294 53.839 C 317.934 54.200,318.430 55.229,318.842 54.974 C 319.039 54.852,319.200 54.493,319.200 54.176 C 319.200 53.587,318.723 53.410,318.294 53.839 M100.230 55.252 C 99.807 55.663,99.649 56.000,99.881 56.000 C 100.343 56.000,101.409 54.865,101.157 54.642 C 101.071 54.566,100.654 54.840,100.230 55.252 M95.981 59.300 C 92.970 62.357,91.209 64.799,93.602 62.600 C 95.919 60.471,99.600 56.781,99.600 56.588 C 99.600 55.925,98.477 56.767,95.981 59.300 M319.895 58.358 C 319.769 58.840,319.922 59.238,320.286 59.378 C 320.614 59.504,320.791 59.847,320.679 60.140 C 320.428 60.794,321.047 61.887,321.443 61.490 C 321.601 61.332,321.483 60.708,321.182 60.102 C 320.880 59.496,320.623 58.788,320.611 58.528 C 320.572 57.667,320.105 57.556,319.895 58.358 M321.271 63.067 C 321.465 64.070,322.400 64.208,322.400 63.233 C 322.400 62.742,322.142 62.400,321.771 62.400 C 321.398 62.400,321.194 62.672,321.271 63.067 M91.200 64.725 C 91.200 64.903,90.822 65.455,90.360 65.951 C 89.898 66.447,89.619 66.952,89.741 67.074 C 90.024 67.358,91.200 66.193,91.200 65.629 C 91.200 65.393,91.380 65.200,91.600 65.200 C 91.820 65.200,92.000 65.020,92.000 64.800 C 92.000 64.580,91.820 64.400,91.600 64.400 C 91.380 64.400,91.200 64.546,91.200 64.725 M322.116 65.574 C 322.188 66.330,322.461 67.020,322.723 67.108 C 323.402 67.334,323.314 65.898,322.593 64.976 C 322.020 64.245,321.993 64.279,322.116 65.574 M88.496 68.395 C 87.764 69.567,87.892 69.822,88.800 69.000 C 89.612 68.265,89.848 67.600,89.296 67.600 C 89.129 67.600,88.769 67.958,88.496 68.395 M323.093 68.241 C 322.639 68.694,322.747 70.187,323.272 70.712 C 323.538 70.978,323.704 72.060,323.652 73.192 C 323.563 75.136,324.108 75.958,324.498 74.468 C 324.861 73.080,323.644 67.689,323.093 68.241 M86.896 70.795 C 86.144 71.998,86.302 72.256,87.200 71.292 C 88.047 70.383,88.194 70.000,87.696 70.000 C 87.529 70.000,87.169 70.358,86.896 70.795 M84.193 75.500 C 83.808 76.325,83.417 77.135,83.323 77.300 C 83.230 77.465,83.343 77.600,83.576 77.600 C 83.809 77.600,84.000 77.330,84.000 77.000 C 84.000 76.670,84.180 76.400,84.400 76.400 C 84.620 76.400,84.800 76.040,84.800 75.600 C 84.800 75.160,84.980 74.800,85.200 74.800 C 85.420 74.800,85.600 74.620,85.600 74.400 C 85.600 73.505,84.848 74.092,84.193 75.500 M324.600 76.000 C 324.736 76.220,325.287 76.400,325.824 76.400 C 326.361 76.400,326.800 76.220,326.800 76.000 C 326.800 75.780,326.249 75.600,325.576 75.600 C 324.863 75.600,324.456 75.767,324.600 76.000 M328.000 76.800 C 328.000 77.020,328.349 77.200,328.776 77.200 C 329.203 77.200,329.664 77.020,329.800 76.800 C 329.940 76.573,329.604 76.400,329.024 76.400 C 328.461 76.400,328.000 76.580,328.000 76.800 M331.315 77.352 C 331.498 77.908,333.200 78.198,333.200 77.674 C 333.200 77.465,332.743 77.206,332.184 77.099 C 331.543 76.977,331.223 77.070,331.315 77.352 M333.733 78.232 C 333.733 78.618,334.036 78.795,334.567 78.719 C 335.025 78.654,335.400 78.438,335.400 78.240 C 335.400 78.042,335.025 77.822,334.567 77.753 C 334.033 77.671,333.733 77.843,333.733 78.232 M82.400 78.600 C 82.400 78.930,82.580 79.200,82.800 79.200 C 83.020 79.200,83.200 78.930,83.200 78.600 C 83.200 78.270,83.020 78.000,82.800 78.000 C 82.580 78.000,82.400 78.270,82.400 78.600 M336.250 78.683 C 336.124 78.809,336.117 79.066,336.234 79.256 C 336.515 79.710,337.600 79.700,337.600 79.243 C 337.600 78.801,336.562 78.371,336.250 78.683 M338.264 79.823 C 338.400 80.176,338.763 80.346,339.102 80.216 C 339.432 80.090,339.904 80.256,340.151 80.586 C 340.449 80.984,340.791 81.065,341.169 80.827 C 341.601 80.554,341.374 80.316,340.220 79.834 C 338.321 79.041,337.963 79.038,338.264 79.823 M184.976 81.709 L 183.000 83.800 184.993 82.000 C 186.088 81.010,187.063 80.155,187.159 80.100 C 187.255 80.045,187.247 79.914,187.143 79.809 C 187.038 79.704,186.063 80.559,184.976 81.709 M214.585 81.508 C 216.542 83.570,217.420 84.265,216.349 82.902 C 215.681 82.052,215.304 81.686,213.782 80.408 C 213.132 79.862,213.493 80.357,214.585 81.508 M341.800 81.200 C 341.664 81.420,341.901 81.600,342.327 81.600 C 342.753 81.600,343.324 81.868,343.596 82.196 C 343.868 82.523,344.250 82.693,344.445 82.572 C 345.075 82.183,344.822 81.600,344.024 81.600 C 343.597 81.600,343.136 81.420,343.000 81.200 C 342.864 80.980,342.594 80.800,342.400 80.800 C 342.206 80.800,341.936 80.980,341.800 81.200 M80.800 82.800 C 80.800 83.240,80.661 83.600,80.491 83.600 C 80.321 83.600,79.994 84.410,79.764 85.400 C 79.535 86.390,79.476 87.200,79.634 87.200 C 79.932 87.200,80.863 85.054,81.022 84.000 C 81.072 83.670,81.241 83.085,81.399 82.700 C 81.570 82.282,81.507 82.000,81.243 82.000 C 80.999 82.000,80.800 82.360,80.800 82.800 M346.800 83.504 C 346.800 83.920,348.427 84.906,348.687 84.647 C 348.945 84.389,347.957 83.436,347.290 83.300 C 347.021 83.245,346.800 83.337,346.800 83.504 M350.800 85.856 C 350.800 86.168,352.082 87.170,352.503 87.187 C 352.670 87.194,352.582 86.840,352.307 86.400 C 351.842 85.655,350.800 85.279,350.800 85.856 M353.453 87.480 C 353.140 87.793,354.334 88.889,354.813 88.729 C 355.036 88.655,354.870 88.295,354.443 87.930 C 354.017 87.565,353.571 87.362,353.453 87.480 M78.642 88.635 C 78.164 89.880,78.339 90.548,79.000 90.000 C 79.669 89.445,79.789 88.564,79.242 88.226 C 79.045 88.104,78.775 88.288,78.642 88.635 M355.600 89.018 C 355.600 89.432,357.649 91.284,357.867 91.067 C 357.987 90.947,357.624 90.388,357.061 89.824 C 356.065 88.828,355.600 88.572,355.600 89.018 M77.842 91.835 C 77.451 92.853,77.560 93.190,78.200 92.945 C 78.860 92.691,79.006 91.775,78.442 91.426 C 78.245 91.304,77.975 91.488,77.842 91.835 M179.040 92.840 C 178.893 93.757,178.852 94.585,178.947 94.680 C 179.042 94.776,179.246 94.110,179.400 93.200 C 179.554 92.290,179.596 91.462,179.493 91.360 C 179.390 91.257,179.187 91.923,179.040 92.840 M362.560 95.344 C 364.958 97.692,367.018 99.516,367.137 99.397 C 367.400 99.133,360.210 92.138,359.037 91.518 C 358.577 91.274,360.162 92.996,362.560 95.344 M77.074 95.239 C 76.772 96.395,77.184 97.467,77.650 96.734 C 78.097 96.028,78.095 94.400,77.647 94.400 C 77.452 94.400,77.195 94.777,77.074 95.239 M178.887 99.000 C 178.891 99.440,179.032 100.340,179.200 101.000 C 179.474 102.078,179.506 102.098,179.513 101.200 C 179.517 100.650,179.376 99.750,179.200 99.200 C 178.949 98.416,178.881 98.373,178.887 99.000 M70.546 99.288 C 70.440 99.460,71.083 99.623,71.976 99.650 C 75.677 99.764,76.494 99.676,76.196 99.194 C 75.909 98.729,70.839 98.813,70.546 99.288 M64.800 100.000 C 64.361 100.284,64.663 100.389,65.924 100.394 C 66.972 100.398,67.550 100.243,67.400 100.000 C 67.086 99.493,65.585 99.493,64.800 100.000 M367.900 100.878 C 368.383 101.361,368.898 101.635,369.046 101.487 C 369.435 101.098,368.413 100.000,367.662 100.000 C 367.148 100.000,367.195 100.172,367.900 100.878 M61.400 100.800 C 61.260 101.027,61.596 101.200,62.176 101.200 C 62.739 101.200,63.200 101.020,63.200 100.800 C 63.200 100.580,62.851 100.400,62.424 100.400 C 61.997 100.400,61.536 100.580,61.400 100.800 M58.400 101.600 C 58.400 101.820,58.850 102.000,59.400 102.000 C 59.950 102.000,60.400 101.820,60.400 101.600 C 60.400 101.380,59.950 101.200,59.400 101.200 C 58.850 101.200,58.400 101.380,58.400 101.600 M56.000 102.400 C 56.000 102.620,56.360 102.800,56.800 102.800 C 57.240 102.800,57.600 102.620,57.600 102.400 C 57.600 102.180,57.240 102.000,56.800 102.000 C 56.360 102.000,56.000 102.180,56.000 102.400 M53.800 103.200 C 53.664 103.420,53.923 103.600,54.376 103.600 C 54.829 103.600,55.200 103.420,55.200 103.200 C 55.200 102.980,54.941 102.800,54.624 102.800 C 54.307 102.800,53.936 102.980,53.800 103.200 M370.400 103.496 C 370.400 103.946,370.696 104.428,371.057 104.567 C 372.047 104.946,372.094 104.631,371.203 103.603 C 370.429 102.711,370.400 102.707,370.400 103.496 M52.000 104.000 C 52.000 104.220,52.270 104.400,52.600 104.400 C 52.930 104.400,53.200 104.220,53.200 104.000 C 53.200 103.780,52.930 103.600,52.600 103.600 C 52.270 103.600,52.000 103.780,52.000 104.000 M50.000 104.800 C 50.000 105.020,50.259 105.200,50.576 105.200 C 50.893 105.200,51.264 105.020,51.400 104.800 C 51.536 104.580,51.277 104.400,50.824 104.400 C 50.371 104.400,50.000 104.580,50.000 104.800 M48.400 105.600 C 48.400 105.820,48.670 106.000,49.000 106.000 C 49.330 106.000,49.600 105.820,49.600 105.600 C 49.600 105.380,49.330 105.200,49.000 105.200 C 48.670 105.200,48.400 105.380,48.400 105.600 M45.707 106.947 C 43.974 107.820,43.532 108.400,44.600 108.400 C 44.930 108.400,45.200 108.220,45.200 108.000 C 45.200 107.780,45.517 107.600,45.904 107.600 C 46.291 107.600,46.832 107.240,47.107 106.800 C 47.382 106.360,47.560 106.021,47.503 106.047 C 47.447 106.072,46.638 106.477,45.707 106.947 M372.000 106.400 C 372.000 106.620,372.270 106.800,372.600 106.800 C 372.930 106.800,373.200 107.010,373.200 107.267 C 373.200 107.523,373.294 107.639,373.409 107.524 C 373.525 107.409,373.505 107.019,373.367 106.657 C 373.094 105.948,372.000 105.742,372.000 106.400 M181.549 107.000 C 181.765 107.440,182.234 108.160,182.593 108.600 L 183.244 109.400 182.851 108.600 C 182.635 108.160,182.166 107.440,181.807 107.000 L 181.156 106.200 181.549 107.000 M41.147 109.804 C 40.569 110.118,39.989 110.651,39.860 110.988 C 39.524 111.863,40.120 111.744,40.800 110.800 C 41.117 110.360,41.697 110.000,42.088 110.000 C 42.480 110.000,42.800 109.820,42.800 109.600 C 42.800 109.069,42.413 109.116,41.147 109.804 M184.600 111.147 C 185.480 112.093,186.740 113.240,187.400 113.696 C 188.803 114.665,188.240 114.072,185.200 111.377 L 183.000 109.427 184.600 111.147 M214.585 111.669 C 213.493 112.807,213.145 113.306,213.811 112.779 C 214.952 111.876,217.031 109.600,216.715 109.600 C 216.635 109.600,215.677 110.531,214.585 111.669 M375.200 111.000 C 375.200 111.330,375.346 111.600,375.525 111.600 C 375.704 111.600,376.098 112.230,376.400 113.000 C 376.702 113.770,377.096 114.400,377.275 114.400 C 377.454 114.400,377.600 114.670,377.600 115.000 C 377.600 115.330,377.780 115.600,378.000 115.600 C 378.220 115.600,378.400 115.330,378.400 115.000 C 378.400 114.670,378.220 114.400,378.000 114.400 C 377.780 114.400,377.600 114.130,377.600 113.800 C 377.600 113.470,377.454 113.200,377.275 113.200 C 377.096 113.200,376.702 112.570,376.400 111.800 C 375.835 110.360,375.200 109.937,375.200 111.000 M37.240 112.558 C 35.945 113.935,36.776 114.100,38.159 112.740 C 38.917 111.994,39.114 111.600,38.728 111.600 C 38.404 111.600,37.735 112.031,37.240 112.558 M32.900 116.184 C 31.915 117.169,31.770 117.600,32.424 117.600 C 32.657 117.600,32.736 117.420,32.600 117.200 C 32.464 116.980,32.590 116.800,32.880 116.800 C 33.170 116.800,33.632 116.440,33.907 116.000 C 34.561 114.953,34.035 115.049,32.900 116.184 M31.200 117.837 C 31.200 118.041,30.761 118.682,30.224 119.261 C 29.687 119.840,29.349 120.416,29.473 120.540 C 29.597 120.664,30.136 120.122,30.669 119.336 C 31.203 118.550,31.541 117.807,31.420 117.686 C 31.299 117.566,31.200 117.634,31.200 117.837 M379.409 118.300 C 379.570 118.685,379.791 119.405,379.898 119.900 C 380.005 120.395,380.252 120.800,380.447 120.800 C 380.931 120.800,380.894 119.705,380.400 119.400 C 380.180 119.264,380.000 118.803,380.000 118.376 C 380.000 117.949,379.801 117.600,379.557 117.600 C 379.290 117.600,379.231 117.878,379.409 118.300 M28.223 121.433 C 27.796 121.745,27.573 122.000,27.727 122.000 C 27.881 122.000,27.464 122.568,26.800 123.263 C 25.106 125.035,25.633 125.194,27.387 123.440 C 28.179 122.648,28.686 121.997,28.513 121.994 C 28.341 121.991,28.465 121.820,28.788 121.616 C 29.112 121.411,29.292 121.158,29.188 121.054 C 29.084 120.950,28.650 121.121,28.223 121.433 M380.800 121.976 C 380.800 122.429,380.980 122.800,381.200 122.800 C 381.420 122.800,381.600 122.541,381.600 122.224 C 381.600 121.907,381.420 121.536,381.200 121.400 C 380.980 121.264,380.800 121.523,380.800 121.976 M381.600 123.976 C 381.600 124.429,381.780 124.800,382.000 124.800 C 382.220 124.800,382.400 124.541,382.400 124.224 C 382.400 123.907,382.220 123.536,382.000 123.400 C 381.780 123.264,381.600 123.523,381.600 123.976 M24.460 126.242 C 23.731 127.066,24.200 127.457,24.981 126.676 C 25.321 126.336,25.600 125.954,25.600 125.829 C 25.600 125.409,25.006 125.624,24.460 126.242 M382.400 126.400 C 382.400 126.840,382.580 127.200,382.800 127.200 C 383.020 127.200,383.200 126.840,383.200 126.400 C 383.200 125.960,383.020 125.600,382.800 125.600 C 382.580 125.600,382.400 125.960,382.400 126.400 M144.041 128.270 C 144.063 128.451,145.001 129.410,146.124 130.400 C 147.596 131.697,147.895 131.861,147.194 130.989 C 146.063 129.582,143.981 127.787,144.041 128.270 M253.776 130.109 L 251.800 132.200 253.793 130.400 C 254.888 129.410,255.863 128.555,255.959 128.500 C 256.055 128.445,256.047 128.314,255.943 128.209 C 255.838 128.104,254.863 128.959,253.776 130.109 M383.200 128.800 C 383.200 129.240,383.380 129.600,383.600 129.600 C 383.820 129.600,384.000 129.240,384.000 128.800 C 384.000 128.360,383.820 128.000,383.600 128.000 C 383.380 128.000,383.200 128.360,383.200 128.800 M115.578 130.300 L 114.200 131.800 115.700 130.422 C 117.096 129.138,117.384 128.800,117.078 128.800 C 117.012 128.800,116.337 129.475,115.578 130.300 M284.000 130.200 C 284.746 130.970,285.447 131.600,285.557 131.600 C 285.667 131.600,285.146 130.970,284.400 130.200 C 283.654 129.430,282.953 128.800,282.843 128.800 C 282.733 128.800,283.254 129.430,284.000 130.200 M21.600 130.600 C 21.600 130.930,21.780 131.200,22.000 131.200 C 22.220 131.200,22.400 130.930,22.400 130.600 C 22.400 130.270,22.220 130.000,22.000 130.000 C 21.780 130.000,21.600 130.270,21.600 130.600 M384.000 131.600 C 384.000 132.347,384.107 132.453,384.480 132.080 C 384.853 131.707,384.853 131.493,384.480 131.120 C 384.107 130.747,384.000 130.853,384.000 131.600 M287.478 134.995 C 287.844 135.762,288.214 136.319,288.301 136.232 C 288.484 136.049,287.270 133.600,286.996 133.600 C 286.895 133.600,287.112 134.228,287.478 134.995 M384.806 134.876 C 384.809 135.384,384.987 136.070,385.200 136.400 C 385.495 136.857,385.589 136.695,385.594 135.724 C 385.597 135.022,385.420 134.336,385.200 134.200 C 384.977 134.062,384.803 134.361,384.806 134.876 M19.200 135.400 C 19.200 135.730,19.380 136.000,19.600 136.000 C 19.820 136.000,20.000 135.730,20.000 135.400 C 20.000 135.070,19.820 134.800,19.600 134.800 C 19.380 134.800,19.200 135.070,19.200 135.400 M150.313 136.619 C 150.684 137.620,151.039 138.282,151.103 138.091 C 151.231 137.706,150.093 134.800,149.814 134.800 C 149.717 134.800,149.942 135.619,150.313 136.619 M248.955 137.500 C 248.834 137.885,248.570 138.613,248.367 139.119 C 248.165 139.624,248.023 140.614,248.050 141.319 C 248.098 142.538,248.115 142.523,248.405 141.000 C 248.573 140.120,248.898 138.815,249.127 138.100 C 249.357 137.385,249.461 136.800,249.360 136.800 C 249.258 136.800,249.076 137.115,248.955 137.500 M17.600 138.800 C 17.600 139.240,17.780 139.600,18.000 139.600 C 18.220 139.600,18.400 139.240,18.400 138.800 C 18.400 138.360,18.220 138.000,18.000 138.000 C 17.780 138.000,17.600 138.360,17.600 138.800 M385.600 139.104 C 385.600 141.678,383.152 152.425,381.614 156.600 C 381.128 157.920,380.625 159.352,380.497 159.781 C 380.369 160.211,379.468 162.186,378.496 164.169 C 366.587 188.456,344.436 203.767,317.431 206.378 C 310.675 207.031,207.730 206.958,207.465 206.300 C 207.345 206.003,207.250 206.087,207.232 206.505 C 207.193 207.367,316.390 207.331,321.800 206.468 C 325.160 205.931,327.707 205.404,329.600 204.853 C 330.370 204.629,331.630 204.277,332.400 204.072 C 339.372 202.214,353.987 194.882,356.400 192.031 C 356.510 191.901,357.447 191.166,358.482 190.397 C 361.206 188.375,368.310 181.061,370.719 177.800 C 371.856 176.260,372.966 174.786,373.187 174.524 C 373.407 174.262,373.971 173.362,374.440 172.524 C 374.910 171.686,375.599 170.550,375.971 170.000 C 379.526 164.755,383.974 152.584,385.400 144.200 C 385.549 143.320,385.853 142.381,386.075 142.112 C 386.482 141.619,386.312 138.579,385.851 138.117 C 385.713 137.979,385.600 138.423,385.600 139.104 M151.458 140.000 C 151.775 141.725,152.002 142.051,151.994 140.767 C 151.991 140.235,151.811 139.530,151.594 139.200 C 151.318 138.778,151.277 139.015,151.458 140.000 M289.268 139.400 C 289.262 139.840,289.411 140.560,289.600 141.000 C 290.038 142.019,290.038 140.968,289.600 139.600 C 289.343 138.796,289.277 138.757,289.268 139.400 M17.092 140.242 C 16.931 140.402,16.800 140.809,16.800 141.147 C 16.800 141.597,16.918 141.642,17.245 141.315 C 17.490 141.070,17.621 140.663,17.537 140.410 C 17.452 140.157,17.252 140.081,17.092 140.242 M16.089 143.371 C 16.134 143.905,16.312 144.255,16.485 144.148 C 16.940 143.866,16.873 142.400,16.404 142.400 C 16.187 142.400,16.045 142.837,16.089 143.371 M152.109 144.800 C 152.109 145.790,152.187 146.195,152.282 145.700 C 152.378 145.205,152.378 144.395,152.282 143.900 C 152.187 143.405,152.109 143.810,152.109 144.800 M247.709 144.800 C 247.709 145.790,247.787 146.195,247.882 145.700 C 247.978 145.205,247.978 144.395,247.882 143.900 C 247.787 143.405,247.709 143.810,247.709 144.800 M15.449 145.530 C 15.272 146.042,15.233 146.567,15.363 146.697 C 15.778 147.111,16.070 146.500,15.918 145.534 L 15.771 144.600 15.449 145.530 M248.006 148.433 C 248.009 149.185,248.177 150.061,248.379 150.379 C 248.616 150.754,248.665 150.330,248.518 149.179 C 248.235 146.970,247.998 146.625,248.006 148.433 M14.400 149.033 C 14.400 149.602,14.594 150.002,14.830 149.923 C 15.066 149.845,15.247 149.649,15.230 149.490 C 15.213 149.331,15.200 148.930,15.200 148.600 C 15.200 148.270,15.020 148.000,14.800 148.000 C 14.580 148.000,14.400 148.465,14.400 149.033 M151.654 148.667 C 151.625 149.144,151.496 149.864,151.370 150.267 C 151.152 150.961,151.164 150.962,151.596 150.288 C 151.847 149.897,151.975 149.177,151.881 148.688 C 151.709 147.801,151.709 147.801,151.654 148.667 M289.400 149.200 C 289.248 149.891,289.207 150.541,289.309 150.642 C 289.411 150.744,289.609 150.253,289.750 149.550 C 290.083 147.883,289.760 147.560,289.400 149.200 M248.830 151.600 C 248.828 152.176,249.957 154.466,249.986 153.946 C 249.994 153.806,249.737 153.086,249.416 152.346 C 249.094 151.606,248.831 151.270,248.830 151.600 M13.867 152.267 C 13.467 152.667,13.545 154.481,13.952 154.230 C 14.145 154.110,14.670 155.495,15.117 157.306 C 17.079 165.240,18.435 168.848,21.728 174.889 C 26.305 183.286,34.002 191.475,42.485 196.972 C 46.230 199.400,53.769 203.185,54.876 203.194 C 55.248 203.197,55.651 203.359,55.771 203.554 C 55.892 203.749,56.487 204.004,57.095 204.121 C 57.703 204.238,58.920 204.541,59.800 204.794 C 67.325 206.955,65.665 206.905,131.400 206.964 L 193.000 207.020 131.400 206.784 C 64.482 206.528,68.584 206.668,60.101 204.351 C 48.128 201.081,35.132 192.627,28.343 183.692 C 27.386 182.431,26.498 181.310,26.371 181.200 C 22.912 178.205,16.813 163.799,14.808 153.884 C 14.471 152.215,14.268 151.866,13.867 152.267 M113.900 157.400 C 114.357 158.060,115.416 159.230,116.253 160.000 C 117.470 161.118,117.383 160.958,115.822 159.200 C 113.196 156.244,112.926 155.991,113.900 157.400 M252.000 157.725 C 252.000 157.794,252.585 158.379,253.300 159.025 L 254.600 160.200 253.425 158.900 C 252.330 157.688,252.000 157.416,252.000 157.725 M283.586 159.868 C 282.384 161.116,281.940 161.706,282.600 161.181 C 283.770 160.250,286.231 157.600,285.926 157.600 C 285.842 157.600,284.789 158.621,283.586 159.868 M123.767 172.000 C 123.767 176.290,123.826 178.045,123.898 175.900 C 123.970 173.755,123.970 170.245,123.898 168.100 C 123.826 165.955,123.767 167.710,123.767 172.000 M138.480 172.876 C 138.436 177.648,138.535 181.637,138.700 181.739 C 138.865 181.842,138.954 179.287,138.897 176.063 C 138.706 165.242,138.562 164.137,138.480 172.876 M276.078 172.100 C 276.157 179.848,276.303 178.940,276.496 169.499 C 276.553 166.694,276.465 164.399,276.300 164.399 C 276.135 164.400,276.035 167.865,276.078 172.100 M139.200 182.676 C 139.200 183.463,142.592 185.941,143.047 185.486 C 143.145 185.388,142.674 185.079,141.999 184.800 C 141.325 184.520,140.419 183.842,139.986 183.292 C 139.554 182.742,139.200 182.465,139.200 182.676 M258.300 184.629 C 256.805 185.440,256.896 185.778,258.400 185.000 C 259.060 184.659,259.600 184.294,259.600 184.190 C 259.600 183.932,259.557 183.947,258.300 184.629 M156.529 185.900 C 163.310 185.961,174.290 185.961,180.929 185.900 C 187.568 185.838,182.020 185.788,168.600 185.788 C 155.180 185.788,149.748 185.838,156.529 185.900 M219.500 185.900 C 226.155 185.961,237.045 185.961,243.700 185.900 C 250.355 185.838,244.910 185.788,231.600 185.788 C 218.290 185.788,212.845 185.838,219.500 185.900 M270.025 194.169 L 268.650 195.800 270.205 194.313 C 271.060 193.496,271.679 192.762,271.580 192.683 C 271.481 192.603,270.781 193.272,270.025 194.169 M129.200 193.548 C 129.200 193.720,129.650 194.283,130.200 194.800 C 130.750 195.317,131.200 195.626,131.200 195.488 C 131.200 195.350,130.750 194.786,130.200 194.236 C 129.650 193.686,129.200 193.377,129.200 193.548 M139.966 200.126 C 140.147 200.307,140.993 200.393,141.847 200.319 L 143.400 200.183 141.519 199.990 C 140.484 199.884,139.785 199.945,139.966 200.126 M258.400 200.000 L 256.600 200.280 258.276 200.340 C 259.198 200.373,260.064 200.220,260.200 200.000 C 260.336 199.780,260.392 199.627,260.324 199.660 C 260.256 199.693,259.390 199.846,258.400 200.000 " stroke="none" fill="#dedcdd" fill-rule="evenodd"></path></g></svg>